<svg width="24" height="24" viewBox="0 0 24 24" fill="none" xmlns="http://www.w3.org/2000/svg">
<path d="M11 11.35L7.95 19.75L7.875 19.875L7.25 20.475C7.13333 20.5917 7.00833 20.6208 6.875 20.5625C6.74167 20.5042 6.65833 20.4 6.625 20.25L6.5 19.45C6.5 19.4667 6.50833 19.4083 6.525 19.275L9.675 10.6C9.85833 10.7833 10.0625 10.9333 10.2875 11.05C10.5125 11.1667 10.75 11.2667 11 11.35ZM12 11C11.1667 11 10.4583 10.7083 9.875 10.125C9.29167 9.54167 9 8.83333 9 8C9 7.3 9.20417 6.67917 9.6125 6.1375C10.0208 5.59583 10.5667 5.25 11.25 5.1V3.75C11.25 3.53333 11.3208 3.35417 11.4625 3.2125C11.6042 3.07083 11.7833 3 12 3C12.2167 3 12.3958 3.07083 12.5375 3.2125C12.6792 3.35417 12.75 3.53333 12.75 3.75V5.1C13.4333 5.25 13.9792 5.59583 14.3875 6.1375C14.7958 6.67917 15 7.3 15 8C15 8.83333 14.7083 9.54167 14.125 10.125C13.5417 10.7083 12.8333 11 12 11ZM12 9.5C12.4167 9.5 12.7708 9.35417 13.0625 9.0625C13.3542 8.77083 13.5 8.41667 13.5 8C13.5 7.58333 13.3542 7.22917 13.0625 6.9375C12.7708 6.64583 12.4167 6.5 12 6.5C11.5833 6.5 11.2292 6.64583 10.9375 6.9375C10.6458 7.22917 10.5 7.58333 10.5 8C10.5 8.41667 10.6458 8.77083 10.9375 9.0625C11.2292 9.35417 11.5833 9.5 12 9.5ZM12.95 11.375C13.2 11.2917 13.4417 11.1917 13.675 11.075C13.9083 10.9583 14.1167 10.8083 14.3 10.625L17.475 19.275C17.5083 19.3417 17.5083 19.4 17.475 19.45L17.375 20.25C17.3417 20.4 17.2583 20.5042 17.125 20.5625C16.9917 20.6208 16.8667 20.5917 16.75 20.475L16.125 19.875C16.075 19.825 16.05 19.7833 16.05 19.75L12.95 11.375Z" fill="#423E3E"/>
</svg>
