<svg width="20" height="20" viewBox="0 0 20 20" fill="none" xmlns="http://www.w3.org/2000/svg">
<path d="M7.49625 9.58332C7.31819 9.58332 7.17014 9.52305 7.05208 9.40249C6.93403 9.28207 6.875 9.13277 6.875 8.95457C6.875 8.77652 6.93528 8.62846 7.05583 8.51041C7.17625 8.39235 7.32556 8.33332 7.50375 8.33332C7.68181 8.33332 7.82986 8.3936 7.94792 8.51416C8.06597 8.63457 8.125 8.78388 8.125 8.96207C8.125 9.14013 8.06472 9.28818 7.94417 9.40624C7.82375 9.52429 7.67444 9.58332 7.49625 9.58332ZM12.4963 9.58332C12.3182 9.58332 12.1701 9.52305 12.0521 9.40249C11.934 9.28207 11.875 9.13277 11.875 8.95457C11.875 8.77652 11.9353 8.62846 12.0558 8.51041C12.1763 8.39235 12.3256 8.33332 12.5037 8.33332C12.6818 8.33332 12.8299 8.3936 12.9479 8.51416C13.066 8.63457 13.125 8.78388 13.125 8.96207C13.125 9.14013 13.0647 9.28818 12.9442 9.40624C12.8238 9.52429 12.6744 9.58332 12.4963 9.58332ZM3.75 18.3333C3.40625 18.3333 3.11201 18.2109 2.86729 17.966C2.62243 17.7213 2.5 17.4271 2.5 17.0833V12.9167C2.5 12.6389 2.57639 12.3958 2.72917 12.1875C2.88194 11.9792 3.08333 11.8264 3.33333 11.7292V8.33332C3.33333 7.41666 3.50694 6.55207 3.85417 5.73957C4.20139 4.92707 4.67708 4.21874 5.28125 3.61457C5.88542 3.01041 6.59375 2.53471 7.40625 2.18749C8.21875 1.84027 9.08333 1.66666 10 1.66666C10.9167 1.66666 11.7812 1.84027 12.5938 2.18749C13.4062 2.53471 14.1146 3.01041 14.7188 3.61457C15.3229 4.21874 15.7986 4.92707 16.1458 5.73957C16.4931 6.55207 16.6667 7.41666 16.6667 8.33332V11.7292C16.9167 11.8264 17.1181 11.9792 17.2708 12.1875C17.4236 12.3958 17.5 12.6389 17.5 12.9167V17.0833C17.5 17.4271 17.3776 17.7213 17.1329 17.966C16.8881 18.2109 16.5938 18.3333 16.25 18.3333H3.75ZM3.75 12.9167V17.0833H5.9375V12.9167H3.75ZM7.1875 17.0833H9.375V12.9167H7.1875V17.0833ZM4.58333 11.6667H9.375V2.95832C8 3.12499 6.85764 3.71527 5.94792 4.72916C5.03819 5.74305 4.58333 6.94443 4.58333 8.33332V11.6667ZM10.625 11.6667H15.4167V8.33332C15.4167 6.94443 14.9618 5.74305 14.0521 4.72916C13.1424 3.71527 12 3.12499 10.625 2.95832V11.6667ZM10.625 17.0833H12.8125V12.9167H10.625V17.0833ZM14.0625 17.0833H16.25V12.9167H14.0625V17.0833Z" fill="#423E3E"/>
</svg>
