<svg width="24" height="24" viewBox="0 0 24 24" fill="none" xmlns="http://www.w3.org/2000/svg">
<path d="M11.25 6C11.25 6.19891 11.171 6.38968 11.0303 6.53033C10.8897 6.67098 10.6989 6.75 10.5 6.75H9C8.80109 6.75 8.61032 6.67098 8.46967 6.53033C8.32902 6.38968 8.25 6.19891 8.25 6C8.25 5.80109 8.32902 5.61032 8.46967 5.46967C8.61032 5.32902 8.80109 5.25 9 5.25H10.5C10.6989 5.25 10.8897 5.32902 11.0303 5.46967C11.171 5.61032 11.25 5.80109 11.25 6ZM16.155 18.4819L16.485 20.7881C16.5154 21.0009 16.4996 21.2176 16.4389 21.4238C16.3782 21.6299 16.2739 21.8206 16.1331 21.9829C15.9923 22.1452 15.8183 22.2754 15.6228 22.3646C15.4273 22.4538 15.2149 22.5 15 22.5H9C8.78511 22.5 8.57273 22.4538 8.37723 22.3646C8.18174 22.2754 8.00769 22.1452 7.86688 21.9829C7.72607 21.8206 7.62177 21.6299 7.56107 21.4238C7.50036 21.2176 7.48465 21.0009 7.515 20.7881L7.845 18.4819C6.38522 17.7211 5.16181 16.5748 4.30765 15.1677C3.45349 13.7605 3.00123 12.1461 3 10.5C3 10.3011 3.07902 10.1103 3.21967 9.96967C3.36032 9.82902 3.55109 9.75 3.75 9.75H5.25V3.75C5.25 3.35218 5.40804 2.97064 5.68934 2.68934C5.97064 2.40804 6.35218 2.25 6.75 2.25H17.25C17.6478 2.25 18.0294 2.40804 18.3107 2.68934C18.592 2.97064 18.75 3.35218 18.75 3.75V9.75H20.25C20.4489 9.75 20.6397 9.82902 20.7803 9.96967C20.921 10.1103 21 10.3011 21 10.5C20.9988 12.1461 20.5465 13.7605 19.6924 15.1677C18.8382 16.5748 17.6148 17.7211 16.155 18.4819ZM6.75 9.75H17.25V3.75H6.75V9.75ZM14.7253 19.0781C12.952 19.6406 11.048 19.6406 9.27469 19.0781L9 21H15L14.7253 19.0781ZM19.4625 11.25H4.5375C4.72321 13.1001 5.58958 14.8153 6.9685 16.0628C8.34742 17.3102 10.1406 18.0009 12 18.0009C13.8594 18.0009 15.6526 17.3102 17.0315 16.0628C18.4104 14.8153 19.2768 13.1001 19.4625 11.25Z" fill="#423E3E"/>
</svg>
