<svg width="20" height="20" viewBox="0 0 20 20" fill="none" xmlns="http://www.w3.org/2000/svg">
<path d="M1.66675 9.70832C1.66675 9.3486 1.7848 9.04339 2.02091 8.7927C2.25703 8.542 2.55564 8.41666 2.91675 8.41666H3.45841V5.41666C3.45841 5.07291 3.58085 4.7786 3.82571 4.53374C4.07043 4.28902 4.36466 4.16666 4.70841 4.16666H15.2709C15.6147 4.16666 15.909 4.28902 16.1538 4.53374C16.3986 4.7786 16.5209 5.07291 16.5209 5.41666V8.41666H17.0834C17.4272 8.41666 17.7215 8.53902 17.9663 8.78374C18.2111 9.0286 18.3334 9.32291 18.3334 9.66666V13.2083C18.3334 13.4722 18.2397 13.6979 18.0522 13.8854C17.8647 14.0729 17.639 14.1667 17.3751 14.1667L17.0209 15.6042C16.9992 15.6747 16.9615 15.7305 16.9076 15.7717C16.8536 15.8128 16.7941 15.8333 16.7292 15.8333H16.5626C16.4977 15.8333 16.4383 15.8128 16.3842 15.7717C16.3304 15.7305 16.2926 15.6747 16.2709 15.6042L15.9167 14.1667H4.10425L3.72925 15.6042C3.70758 15.6747 3.6698 15.7305 3.61591 15.7717C3.56189 15.8128 3.50244 15.8333 3.43758 15.8333H3.27091C3.20605 15.8333 3.14661 15.8128 3.09258 15.7717C3.03869 15.7305 3.00091 15.6747 2.97925 15.6042L2.62508 14.1667C2.36119 14.1667 2.1355 14.0729 1.948 13.8854C1.7605 13.6979 1.66675 13.4722 1.66675 13.2083V9.70832ZM10.6251 8.41666H15.2709V5.41666H10.6251V8.41666ZM4.70841 8.41666H9.37508V5.41666H4.70841V8.41666ZM2.91675 12.9167H17.0834V9.66666H2.91675V12.9167Z" fill="#423E3E"/>
</svg>
