<svg width="24" height="24" viewBox="0 0 24 24" fill="none" xmlns="http://www.w3.org/2000/svg">
<path d="M8.92485 11.1752L11.1748 8.9252L9.29985 7.0502L8.62485 7.7252C8.47484 7.8752 8.29985 7.9502 8.09985 7.9502C7.89985 7.9502 7.72485 7.8752 7.57485 7.7252C7.42485 7.5752 7.34985 7.4002 7.34985 7.2002C7.34985 7.0002 7.42485 6.8252 7.57485 6.6752L8.24985 6.0002L6.37485 4.1502L4.12485 6.4002L8.92485 11.1752ZM17.5748 19.8752L19.8248 17.6002L17.9498 15.7252L17.2748 16.4002C17.1248 16.5502 16.9498 16.6252 16.7498 16.6252C16.5498 16.6252 16.3748 16.5502 16.2248 16.4002C16.0748 16.2502 15.9998 16.0752 15.9998 15.8752C15.9998 15.6752 16.0748 15.5002 16.2248 15.3502L16.8998 14.6752L15.0498 12.8252L12.7998 15.0752L17.5748 19.8752ZM3.74985 21.0002C3.53318 21.0002 3.35401 20.9294 3.21235 20.7877C3.07068 20.646 2.99985 20.4669 2.99985 20.2502V17.4002C2.99985 17.3002 3.01651 17.2085 3.04985 17.1252C3.08318 17.0419 3.14151 16.9585 3.22485 16.8752L7.84985 12.2502L2.79985 7.2002C2.56651 6.96686 2.45401 6.7002 2.46235 6.4002C2.47068 6.1002 2.58318 5.83353 2.79985 5.6002L5.54985 2.8002C5.78318 2.56686 6.04985 2.4502 6.34985 2.4502C6.64985 2.4502 6.91651 2.56686 7.14985 2.8002L12.2498 7.8752L16.6998 3.4252C16.8498 3.2752 17.0165 3.16686 17.1998 3.1002C17.3832 3.03353 17.5665 3.0002 17.7498 3.0002C17.9332 3.0002 18.1165 3.03353 18.2998 3.1002C18.4832 3.16686 18.6498 3.2752 18.7998 3.4252L20.5748 5.2002C20.7248 5.3502 20.8332 5.51686 20.8998 5.7002C20.9665 5.88353 20.9998 6.06686 20.9998 6.2502C20.9998 6.43353 20.9665 6.61686 20.8998 6.8002C20.8332 6.98353 20.7248 7.1502 20.5748 7.3002L16.1248 11.7502L21.1998 16.8252C21.4332 17.0585 21.5498 17.3252 21.5498 17.6252C21.5498 17.9252 21.4332 18.1919 21.1998 18.4252L18.4248 21.1752C18.1915 21.4085 17.9248 21.5252 17.6248 21.5252C17.3248 21.5252 17.0582 21.4085 16.8248 21.1752L11.7748 16.1252L7.12485 20.7752C7.04151 20.8585 6.95818 20.9169 6.87485 20.9502C6.79151 20.9835 6.69985 21.0002 6.59985 21.0002H3.74985ZM4.49985 19.5002H6.24985L16.0748 9.6502L14.3248 7.9002L4.49985 17.7502V19.5002Z" fill="#423E3E"/>
</svg>
