<svg width="24" height="24" viewBox="0 0 24 24" fill="none" xmlns="http://www.w3.org/2000/svg">
<path fill-rule="evenodd" clip-rule="evenodd" d="M16.25 7.75C16.4301 7.75 16.5968 7.84715 16.6855 8.00391C16.774 8.16049 16.7711 8.35255 16.6787 8.50684L15.1787 11.0068C15.0883 11.1574 14.9256 11.25 14.75 11.25H8.75C8.57437 11.25 8.41165 11.1574 8.32129 11.0068L6.82129 8.50684C6.72885 8.35255 6.72598 8.16049 6.81445 8.00391C6.90321 7.84715 7.06986 7.75 7.25 7.75H16.25ZM9.0332 10.25H14.4668L15.3672 8.75H8.13281L9.0332 10.25Z" fill="black"/>
<path fill-rule="evenodd" clip-rule="evenodd" d="M20.75 5C21.1642 5 21.5 5.33579 21.5 5.75V18.75C21.5 19.1642 21.1642 19.5 20.75 19.5C20.3358 19.5 20 19.1642 20 18.75V8.75L17.5 13.4375V18.75C17.5 19.1642 17.1642 19.5 16.75 19.5C16.3358 19.5 16 19.1642 16 18.75V14H7.5V18.75C7.5 19.1642 7.16421 19.5 6.75 19.5C6.33579 19.5 6 19.1642 6 18.75V13.4375L3.5 8.75V18.75C3.5 19.1642 3.16421 19.5 2.75 19.5C2.33579 19.5 2 19.1642 2 18.75V5.75C2 5.33579 2.33579 5 2.75 5H20.75ZM7.2002 12.5H16.2998L19.5 6.5H4L7.2002 12.5Z" fill="black"/>
</svg>
