<svg width="20" height="20" viewBox="0 0 20 20" fill="none" xmlns="http://www.w3.org/2000/svg">
<path d="M7.6875 10.6458C7.49306 10.6458 7.32292 10.5729 7.17708 10.4271C7.03125 10.2812 6.95833 10.1111 6.95833 9.91667C6.95833 9.72222 7.03125 9.55208 7.17708 9.40625C7.32292 9.26042 7.49306 9.1875 7.6875 9.1875C7.88194 9.1875 8.05208 9.26042 8.19792 9.40625C8.34375 9.55208 8.41667 9.72222 8.41667 9.91667C8.41667 10.1111 8.34375 10.2812 8.19792 10.4271C8.05208 10.5729 7.88194 10.6458 7.6875 10.6458ZM12.3333 10.6458C12.1389 10.6458 11.9688 10.5729 11.8229 10.4271C11.6771 10.2812 11.6042 10.1111 11.6042 9.91667C11.6042 9.72222 11.6771 9.55208 11.8229 9.40625C11.9688 9.26042 12.1389 9.1875 12.3333 9.1875C12.5278 9.1875 12.6979 9.26042 12.8438 9.40625C12.9896 9.55208 13.0625 9.72222 13.0625 9.91667C13.0625 10.1111 12.9896 10.2812 12.8438 10.4271C12.6979 10.5729 12.5278 10.6458 12.3333 10.6458ZM3.125 17.5C2.94792 17.5 2.79951 17.4401 2.67979 17.3202C2.55993 17.2005 2.5 17.0521 2.5 16.875C2.5 16.6944 2.55903 16.5451 2.67708 16.4271C2.79514 16.309 2.94444 16.25 3.125 16.25H3.45833V3.75C3.45833 3.41667 3.58333 3.125 3.83333 2.875C4.08333 2.625 4.375 2.5 4.70833 2.5H15.2917C15.625 2.5 15.9167 2.625 16.1667 2.875C16.4167 3.125 16.5417 3.41667 16.5417 3.75V16.25H16.875C17.0521 16.25 17.2006 16.3103 17.3204 16.4308C17.4401 16.5513 17.5 16.7006 17.5 16.8787C17.5 17.0568 17.4401 17.2049 17.3204 17.3229C17.2006 17.441 17.0521 17.5 16.875 17.5H3.125ZM4.70833 16.25H9.375V3.75H4.70833V16.25ZM10.625 16.25H15.2917V3.75H10.625V16.25Z" fill="#423E3E"/>
</svg>
