<svg width="24" height="24" viewBox="0 0 24 24" fill="none" xmlns="http://www.w3.org/2000/svg">
<path d="M11.25 17.125L8.025 20.35C7.89167 20.4833 7.72083 20.55 7.5125 20.55C7.30417 20.55 7.125 20.4833 6.975 20.35C6.825 20.2 6.75 20.0208 6.75 19.8125C6.75 19.6042 6.825 19.425 6.975 19.275L11.25 15V12.75H9L4.8 16.95C4.66667 17.0833 4.49583 17.1542 4.2875 17.1625C4.07917 17.1708 3.9 17.1083 3.75 16.975C3.6 16.825 3.52083 16.6458 3.5125 16.4375C3.50417 16.2292 3.58333 16.0417 3.75 15.875L6.875 12.75H2.725C2.525 12.75 2.35417 12.6792 2.2125 12.5375C2.07083 12.3958 2 12.2167 2 12C2 11.8 2.07083 11.625 2.2125 11.475C2.35417 11.325 2.53333 11.25 2.75 11.25H6.875L3.65 8.05C3.5 7.9 3.425 7.72083 3.425 7.5125C3.425 7.30417 3.5 7.125 3.65 6.975C3.8 6.825 3.97917 6.75 4.1875 6.75C4.39583 6.75 4.575 6.825 4.725 6.975L9 11.25H11.25V8.975L7.05 4.8C6.91667 4.66667 6.85 4.49583 6.85 4.2875C6.85 4.07917 6.91667 3.9 7.05 3.75C7.2 3.6 7.37917 3.525 7.5875 3.525C7.79583 3.525 7.98333 3.6 8.15 3.75L11.25 6.85V2.75C11.25 2.55 11.3208 2.375 11.4625 2.225C11.6042 2.075 11.7833 2 12 2C12.2 2 12.375 2.075 12.525 2.225C12.675 2.375 12.75 2.55 12.75 2.75V6.85L15.95 3.65C16.1 3.5 16.2792 3.425 16.4875 3.425C16.6958 3.425 16.875 3.5 17.025 3.65C17.1583 3.8 17.225 3.97917 17.225 4.1875C17.225 4.39583 17.15 4.575 17 4.725L12.75 8.975V11.25H15.025L19.225 7.05C19.3583 6.91667 19.5292 6.85 19.7375 6.85C19.9458 6.85 20.125 6.91667 20.275 7.05C20.425 7.2 20.5 7.37917 20.5 7.5875C20.5 7.79583 20.425 7.975 20.275 8.125L17.15 11.25H21.25C21.45 11.25 21.625 11.325 21.775 11.475C21.925 11.625 22 11.8 22 12C22 12.2167 21.925 12.3958 21.775 12.5375C21.625 12.6792 21.45 12.75 21.25 12.75H17.15L20.325 15.975C20.475 16.1083 20.55 16.2792 20.55 16.4875C20.55 16.6958 20.475 16.8667 20.325 17C20.1917 17.1667 20.0208 17.25 19.8125 17.25C19.6042 17.25 19.425 17.175 19.275 17.025L15.025 12.75H12.75V15L17.025 19.325C17.175 19.4583 17.25 19.6292 17.25 19.8375C17.25 20.0458 17.175 20.2167 17.025 20.35C16.8917 20.5167 16.7208 20.6 16.5125 20.6C16.3042 20.6 16.125 20.525 15.975 20.375L12.75 17.125V21.275C12.75 21.475 12.675 21.6458 12.525 21.7875C12.375 21.9292 12.2 22 12 22C11.7833 22 11.6042 21.9292 11.4625 21.7875C11.3208 21.6458 11.25 21.4667 11.25 21.25V17.125Z" fill="#423E3E"/>
</svg>
