<svg width="24" height="24" viewBox="0 0 24 24" fill="none" xmlns="http://www.w3.org/2000/svg">
<path d="M5.5 8.5H8.25V5.5H5.5V8.5ZM5.5 18.5H11.25V11.5H5.5V18.5ZM12.75 18.5H18.5V11.5H12.75V18.5ZM5.5 18.5H18.5V11.5H5.5V18.5ZM13.7705 7.5C13.5568 7.5 13.375 7.42808 13.225 7.28425C13.075 7.14058 13 6.9625 13 6.75C13 6 13.2708 5.35417 13.8125 4.8125C14.3542 4.27083 15.0042 4 15.7625 4C16.5208 4 17.1667 4.26733 17.7 4.802C18.2333 5.33683 18.5 5.98617 18.5 6.75V10H21.25C21.4625 10 21.6407 10.0723 21.7845 10.217C21.9282 10.3615 22 10.5407 22 10.7545C22 10.9682 21.9282 11.1458 21.7845 11.2875C21.6407 11.4292 21.4625 11.5 21.25 11.5H20V18.5C20 18.9125 19.8532 19.2656 19.5595 19.5592C19.2657 19.8531 18.9125 20 18.5 20H5.5C5.0875 20 4.73442 19.8531 4.44075 19.5592C4.14692 19.2656 4 18.9125 4 18.5V11.5H2.75C2.5375 11.5 2.35942 11.4277 2.21575 11.283C2.07192 11.1385 2 10.9593 2 10.7455C2 10.5318 2.07192 10.3542 2.21575 10.2125C2.35942 10.0708 2.5375 10 2.75 10H5.75C5.26883 10 4.85683 9.82867 4.514 9.486C4.17133 9.14317 4 8.73117 4 8.25V4.75C4 4.5375 4.07192 4.35933 4.21575 4.2155C4.35942 4.07183 4.5375 4 4.75 4H9C9.2125 4 9.39067 4.07183 9.5345 4.2155C9.67817 4.35933 9.75 4.5375 9.75 4.75V8.25C9.75 8.73117 9.57867 9.14317 9.236 9.486C8.89333 9.82867 8.48133 10 8 10H17V6.75C17 6.39583 16.8807 6.09892 16.642 5.85925C16.4032 5.61975 16.1073 5.5 15.7545 5.5C15.4015 5.5 15.1083 5.62083 14.875 5.8625C14.6417 6.10417 14.525 6.39167 14.525 6.725C14.525 6.9445 14.4527 7.12858 14.308 7.27725C14.1635 7.42575 13.9843 7.5 13.7705 7.5Z" fill="#423E3E"/>
</svg>
