<svg width="24" height="24" viewBox="0 0 24 24" fill="none" xmlns="http://www.w3.org/2000/svg">
<mask id="mask0_1_280" style="mask-type:alpha" maskUnits="userSpaceOnUse" x="0" y="0" width="24" height="24">
<rect width="24" height="24" fill="#D9D9D9"/>
</mask>
<g mask="url(#mask0_1_280)">
<path d="M21.5003 14.25C21.9144 14.2501 22.2503 14.5859 22.2503 15V19.25C22.2503 19.6641 21.9144 19.9999 21.5003 20C21.0861 20 20.7503 19.6642 20.7503 19.25V15.75H3.25028V19.25C3.25028 19.6641 2.9144 19.9999 2.50028 20C2.08606 20 1.75028 19.6642 1.75028 19.25V15C1.75028 14.5858 2.08606 14.25 2.50028 14.25H21.5003Z" fill="#423E3E"/>
<path fill-rule="evenodd" clip-rule="evenodd" d="M19.9998 3.75C20.3124 3.75 20.5921 3.94414 20.7019 4.23682L23.7019 12.2368C23.7883 12.4671 23.7561 12.7251 23.616 12.9272C23.4759 13.1293 23.2457 13.25 22.9998 13.25H0.999788C0.75396 13.2499 0.523648 13.1293 0.383577 12.9272C0.243576 12.7251 0.211376 12.467 0.297639 12.2368L3.29764 4.23682L3.3201 4.18311C3.44238 3.92061 3.70675 3.7501 3.99979 3.75H19.9998ZM2.08182 11.75H5.86942L6.68192 5.25H4.51932L2.08182 11.75ZM7.38114 11.75H11.2503V5.25H8.19364L7.38114 11.75ZM12.7503 11.75H16.6194L15.8069 5.25H12.7503V11.75ZM18.1311 11.75H21.9178L19.4803 5.25H17.3186L18.1311 11.75Z" fill="#423E3E"/>
</g>
</svg>
