<svg width="24" height="24" viewBox="0 0 24 24" fill="none" xmlns="http://www.w3.org/2000/svg">
<mask id="mask0_43_50" style="mask-type:alpha" maskUnits="userSpaceOnUse" x="0" y="0" width="24" height="24">
<rect width="24" height="24" fill="#D9D9D9"/>
</mask>
<g mask="url(#mask0_43_50)">
<path d="M4 19.5V4.5C4 4.0875 4.14692 3.73433 4.44075 3.4405C4.73442 3.14683 5.0875 3 5.5 3H18.5C18.9125 3 19.2657 3.14683 19.5595 3.4405C19.8532 3.73433 20 4.0875 20 4.5V19.5H21.25C21.4625 19.5 21.6407 19.5723 21.7845 19.717C21.9282 19.8615 22 20.0407 22 20.2545C22 20.4682 21.9282 20.6458 21.7845 20.7875C21.6407 20.9292 21.4625 21 21.25 21H2.75C2.5375 21 2.35942 20.9277 2.21575 20.783C2.07192 20.6385 2 20.4593 2 20.2455C2 20.0318 2.07192 19.8542 2.21575 19.7125C2.35942 19.5708 2.5375 19.5 2.75 19.5H4ZM5.5 19.5H9.7C9.56667 18.2667 9.15833 17.0333 8.475 15.8C7.79167 14.5667 6.8 13.775 5.5 13.425V19.5ZM5.5 4.5V10.6C6.8 10.25 7.7875 9.45417 8.4625 8.2125C9.1375 6.97083 9.54167 5.73333 9.675 4.5H5.5ZM6.05 12C7.61667 12.4833 8.8375 13.4625 9.7125 14.9375C10.5875 16.4125 11.0917 17.9333 11.225 19.5H12.775C12.9083 17.9333 13.4083 16.4125 14.275 14.9375C15.1417 13.4625 16.3583 12.4833 17.925 12C16.3583 11.5167 15.1417 10.5375 14.275 9.0625C13.4083 7.5875 12.9083 6.06667 12.775 4.5H11.2C11.0667 6.06667 10.5667 7.5875 9.7 9.0625C8.83333 10.5375 7.61667 11.5167 6.05 12ZM18.5 4.5H14.3C14.4333 5.73333 14.8417 6.97083 15.525 8.2125C16.2083 9.45417 17.2 10.25 18.5 10.6V4.5ZM18.5 19.5V13.4C17.2 13.75 16.2083 14.5458 15.525 15.7875C14.8417 17.0292 14.4333 18.2667 14.3 19.5H18.5Z" fill="#423E3E"/>
</g>
</svg>
