<svg width="24" height="24" viewBox="0 0 24 24" fill="none" xmlns="http://www.w3.org/2000/svg">
<mask id="mask0_1_301" style="mask-type:alpha" maskUnits="userSpaceOnUse" x="-1" y="0" width="25" height="24">
<rect x="-0.000976562" width="24" height="24" fill="#D9D9D9"/>
</mask>
<g mask="url(#mask0_1_301)">
<path d="M7.12402 9V2.75C7.12402 2.5375 7.19636 2.35933 7.34102 2.2155C7.48552 2.07183 7.66469 2 7.87852 2C8.09219 2 8.26986 2.07183 8.41152 2.2155C8.55319 2.35933 8.62402 2.5375 8.62402 2.75V9H10.249V2.75C10.249 2.5375 10.3214 2.35933 10.466 2.2155C10.6105 2.07183 10.7897 2 11.0035 2C11.2172 2 11.3949 2.07183 11.5365 2.2155C11.6782 2.35933 11.749 2.5375 11.749 2.75V8.99325C11.749 9.96442 11.4449 10.7958 10.8365 11.4875C10.2282 12.1792 9.49069 12.6167 8.62402 12.8V21.25C8.62402 21.4625 8.55169 21.6406 8.40702 21.7843C8.26252 21.9281 8.08336 22 7.86952 22C7.65586 22 7.47819 21.9281 7.33652 21.7843C7.19486 21.6406 7.12402 21.4625 7.12402 21.25V12.8C6.25736 12.6167 5.51986 12.1792 4.91152 11.4875C4.30319 10.7958 3.99902 9.96442 3.99902 8.99325V2.75C3.99902 2.5375 4.07136 2.35933 4.21602 2.2155C4.36052 2.07183 4.53969 2 4.75352 2C4.96719 2 5.14486 2.07183 5.28652 2.2155C5.42819 2.35933 5.49902 2.5375 5.49902 2.75V9H7.12402ZM17.499 14H15.374C15.1615 14 14.9834 13.9281 14.8398 13.7843C14.6959 13.6406 14.624 13.4625 14.624 13.25V6.375C14.624 5.225 14.9782 4.20833 15.6865 3.325C16.3949 2.44167 17.2157 2 18.149 2C18.3824 2 18.5824 2.08442 18.749 2.25325C18.9157 2.42208 18.999 2.621 18.999 2.85V21.25C18.999 21.4625 18.9267 21.6406 18.782 21.7843C18.6375 21.9281 18.4584 22 18.2445 22C18.0309 22 17.8532 21.9281 17.7115 21.7843C17.5699 21.6406 17.499 21.4625 17.499 21.25V14Z" fill="#423E3E"/>
</g>
</svg>
