<svg width="20" height="20" viewBox="0 0 20 20" fill="none" xmlns="http://www.w3.org/2000/svg">
<path d="M7.91667 17.0833C8.26382 17.0833 8.55906 17.1629 8.80208 17.3226C9.04514 17.4823 9.16667 17.6805 9.16667 17.9167C9.16667 18.125 9.04514 18.2465 8.80208 18.2812C8.55903 18.316 8.26389 18.3333 7.91667 18.3333C7.56944 18.3333 7.27431 18.316 7.03125 18.2812C6.78819 18.2465 6.66667 18.125 6.66667 17.9167C6.66667 17.6805 6.78819 17.4823 7.03125 17.3226C7.27428 17.1629 7.56952 17.0833 7.91667 17.0833Z" fill="#423E3E"/>
<path d="M4.58333 16.25C4.93048 16.25 5.22572 16.3296 5.46875 16.4892C5.71181 16.649 5.83333 16.8472 5.83333 17.0833C5.83333 17.2917 5.71181 17.4132 5.46875 17.4479C5.22569 17.4826 4.93056 17.5 4.58333 17.5C4.23611 17.5 3.94097 17.4826 3.69792 17.4479C3.45486 17.4132 3.33333 17.2917 3.33333 17.0833C3.33333 16.8472 3.45486 16.649 3.69792 16.4892C3.94094 16.3296 4.23618 16.25 4.58333 16.25Z" fill="#423E3E"/>
<path d="M11.25 16.25C11.5972 16.25 11.8924 16.3296 12.1354 16.4892C12.3785 16.649 12.5 16.8472 12.5 17.0833C12.5 17.2917 12.3785 17.4132 12.1354 17.4479C11.8924 17.4826 11.5972 17.5 11.25 17.5C10.9028 17.5 10.6076 17.4826 10.3646 17.4479C10.1215 17.4132 10 17.2917 10 17.0833C10 16.8472 10.1215 16.649 10.3646 16.4892C10.6076 16.3296 10.9028 16.25 11.25 16.25Z" fill="#423E3E"/>
<path d="M15.4167 16.25C15.7638 16.25 16.0591 16.3296 16.3021 16.4892C16.5451 16.649 16.6667 16.8472 16.6667 17.0833C16.6667 17.2917 16.5451 17.4132 16.3021 17.4479C16.059 17.4826 15.7639 17.5 15.4167 17.5C15.0694 17.5 14.7743 17.4826 14.5312 17.4479C14.2882 17.4132 14.1667 17.2917 14.1667 17.0833C14.1667 16.8472 14.2882 16.649 14.5312 16.4892C14.7743 16.3296 15.0695 16.25 15.4167 16.25Z" fill="#423E3E"/>
<path d="M8.75 14.5833C9.09715 14.5833 9.39239 14.6629 9.63542 14.8226C9.87847 14.9823 10 15.1805 10 15.4167C10 15.625 9.87847 15.7465 9.63542 15.7812C9.39236 15.816 9.09722 15.8333 8.75 15.8333C8.40278 15.8333 8.10764 15.816 7.86458 15.7812C7.62153 15.7465 7.5 15.625 7.5 15.4167C7.5 15.1805 7.62153 14.9823 7.86458 14.8226C8.10761 14.6629 8.40285 14.5833 8.75 14.5833Z" fill="#423E3E"/>
<path d="M5.95866 8.66698C6.27102 8.66706 6.5367 8.78042 6.75537 9.00715C6.97394 9.23401 7.0833 9.50931 7.08333 9.83316C7.08333 10.1456 6.97548 10.4111 6.76025 10.6299C6.54498 10.8486 6.27574 10.9586 5.95296 10.9586C5.63048 10.9586 5.35609 10.8508 5.13021 10.6356C4.90439 10.4203 4.79167 10.151 4.79167 9.82828C4.79168 9.5057 4.90509 9.23147 5.13184 9.00552C5.35878 8.77969 5.63463 8.66698 5.95866 8.66698Z" fill="#423E3E"/>
<path d="M14.0674 8.66698C14.39 8.66698 14.6642 8.78035 14.8901 9.00715C15.1159 9.23406 15.2295 9.5092 15.2295 9.83316C15.2295 10.1455 15.1159 10.4112 14.8893 10.6299C14.6624 10.8486 14.3865 10.9586 14.0625 10.9586C13.7501 10.9586 13.4845 10.8507 13.2658 10.6356C13.047 10.4203 12.9378 10.1511 12.9378 9.82828C12.9378 9.50576 13.045 9.23144 13.2601 9.00552C13.4753 8.77972 13.7447 8.66701 14.0674 8.66698Z" fill="#423E3E"/>
<path fill-rule="evenodd" clip-rule="evenodd" d="M14.8332 1.66666C15.0443 1.66666 15.2363 1.72237 15.4085 1.83349C15.5806 1.94459 15.6875 2.09729 15.7292 2.29166L17.3958 7.33316C17.4256 7.43372 17.45 7.5322 17.4699 7.62776C17.4897 7.72326 17.5 7.82678 17.5 7.93782V14.1667C17.5 14.3982 17.4181 14.5947 17.255 14.7567C17.0922 14.9187 16.8946 15 16.6618 15C16.4291 15 16.2294 14.9169 16.0628 14.751C15.8962 14.5849 15.8122 14.3827 15.8122 14.1455V13.2503H4.16667V14.1667C4.16667 14.3982 4.08477 14.5947 3.92171 14.7567C3.75884 14.9187 3.56128 15 3.32845 15C3.09567 15 2.89898 14.9187 2.73926 14.7567C2.57971 14.5948 2.5 14.3981 2.5 14.1667V7.93782C2.5 7.83243 2.5101 7.72936 2.53092 7.62938C2.55176 7.52925 2.57639 7.43038 2.60417 7.33316L4.27083 2.29166C4.31248 2.09729 4.41937 1.94459 4.59147 1.83349C4.76369 1.72237 4.95572 1.66666 5.16683 1.66666H14.8332ZM3.75 12.0003H16.25V7.62532H3.75V12.0003ZM4.22933 6.37532H15.7707L14.6248 2.91666H5.37516L4.22933 6.37532Z" fill="#423E3E"/>
</svg>
