<svg width="24" height="24" viewBox="0 0 24 24" fill="none" xmlns="http://www.w3.org/2000/svg">
<path d="M11.4251 14.3501L4.62508 13.5501C4.30841 13.5168 4.10008 13.3459 4.00008 13.0376C3.90008 12.7293 3.96674 12.4668 4.20008 12.2501L15.2001 2.1501C15.2667 2.1001 15.3376 2.05843 15.4126 2.0251C15.4876 1.99176 15.6001 1.9751 15.7501 1.9751C16.0001 1.9751 16.1917 2.07926 16.3251 2.2876C16.4584 2.49593 16.4584 2.70843 16.3251 2.9251L12.5751 9.6501L19.3751 10.4501C19.6917 10.4834 19.9001 10.6543 20.0001 10.9626C20.1001 11.2709 20.0334 11.5334 19.8001 11.7501L8.80008 21.8501C8.73341 21.9001 8.66258 21.9418 8.58758 21.9751C8.51258 22.0084 8.40008 22.0251 8.25008 22.0251C8.00008 22.0251 7.80841 21.9209 7.67508 21.7126C7.54174 21.5043 7.54174 21.2918 7.67508 21.0751L11.4251 14.3501ZM11.3251 17.3501L17.6251 11.7751L10.2001 10.8751L12.6751 6.6501L6.35008 12.2501L13.7751 13.1251L11.3251 17.3501Z" fill="#423E3E"/>
</svg>
