<svg width="24" height="24" viewBox="0 0 24 24" fill="none" xmlns="http://www.w3.org/2000/svg">
<path d="M18.625 15C18.4083 15 18.2292 14.9292 18.0875 14.7875C17.9458 14.6458 17.875 14.4667 17.875 14.25C17.875 14.0333 17.9458 13.8542 18.0875 13.7125C18.2292 13.5708 18.4083 13.5 18.625 13.5H20.25C20.4667 13.5 20.6458 13.5708 20.7875 13.7125C20.9292 13.8542 21 14.0333 21 14.25C21 14.45 20.9292 14.625 20.7875 14.775C20.6458 14.925 20.4667 15 20.25 15H18.625ZM18.625 19C18.4083 19 18.2292 18.9292 18.0875 18.7875C17.9458 18.6458 17.875 18.4667 17.875 18.25C17.875 18.0333 17.9458 17.8542 18.0875 17.7125C18.2292 17.5708 18.4083 17.5 18.625 17.5H20.25C20.4667 17.5 20.6458 17.5708 20.7875 17.7125C20.9292 17.8542 21 18.0333 21 18.25C21 18.45 20.9292 18.625 20.7875 18.775C20.6458 18.925 20.4667 19 20.25 19H18.625ZM14 20C13.5167 20 13.1042 19.8042 12.7625 19.4125C12.4208 19.0208 12.25 18.55 12.25 18H10.625C10.4083 18 10.2292 17.9292 10.0875 17.7875C9.94583 17.6458 9.875 17.4667 9.875 17.25V15.25C9.875 15.0333 9.94583 14.8542 10.0875 14.7125C10.2292 14.5708 10.4083 14.5 10.625 14.5H12.25C12.25 13.95 12.4208 13.4792 12.7625 13.0875C13.1042 12.6958 13.5167 12.5 14 12.5H16.375C16.5917 12.5 16.7708 12.5708 16.9125 12.7125C17.0542 12.8542 17.125 13.0333 17.125 13.25V19.25C17.125 19.4667 17.0542 19.6458 16.9125 19.7875C16.7708 19.9292 16.5917 20 16.375 20H14ZM6.875 17C5.75833 17 4.83333 16.6375 4.1 15.9125C3.36667 15.1875 3 14.2583 3 13.125C3 11.9917 3.36667 11.0625 4.1 10.3375C4.83333 9.6125 5.75833 9.25 6.875 9.25H8.5C9.05 9.25 9.5 9.075 9.85 8.725C10.2 8.375 10.375 7.925 10.375 7.375C10.375 6.825 10.2 6.375 9.85 6.025C9.5 5.675 9.05 5.5 8.5 5.5H4.75C4.55 5.5 4.375 5.425 4.225 5.275C4.075 5.125 4 4.95 4 4.75C4 4.53333 4.075 4.35417 4.225 4.2125C4.375 4.07083 4.55 4 4.75 4H8.5C9.46667 4 10.2708 4.32083 10.9125 4.9625C11.5542 5.60417 11.875 6.40833 11.875 7.375C11.875 8.34167 11.5542 9.14583 10.9125 9.7875C10.2708 10.4292 9.46667 10.75 8.5 10.75H6.875C6.175 10.75 5.60417 10.9667 5.1625 11.4C4.72083 11.8333 4.5 12.4083 4.5 13.125C4.5 13.8417 4.72083 14.4167 5.1625 14.85C5.60417 15.2833 6.175 15.5 6.875 15.5H8.375C8.59167 15.5 8.77083 15.5708 8.9125 15.7125C9.05417 15.8542 9.125 16.0333 9.125 16.25C9.125 16.4667 9.05417 16.6458 8.9125 16.7875C8.77083 16.9292 8.59167 17 8.375 17H6.875Z" fill="#423E3E"/>
</svg>
