<svg width="20" height="20" viewBox="0 0 20 20" fill="none" xmlns="http://www.w3.org/2000/svg">
<path d="M3.125 17.5C2.94792 17.5 2.79951 17.4397 2.67979 17.3192C2.55993 17.1988 2.5 17.0494 2.5 16.8713C2.5 16.6932 2.55993 16.5451 2.67979 16.4271C2.79951 16.309 2.94792 16.25 3.125 16.25H4.41667V3.125C4.41667 2.94792 4.4766 2.79944 4.59646 2.67958C4.71618 2.55986 4.86458 2.5 5.04167 2.5H11.9167C12.0938 2.5 12.2422 2.55986 12.3621 2.67958C12.4818 2.79944 12.5417 2.94792 12.5417 3.125V3.4375H14.9792C15.1562 3.4375 15.3047 3.49736 15.4246 3.61708C15.5443 3.73694 15.6042 3.88542 15.6042 4.0625V16.25H16.875C17.0521 16.25 17.2006 16.3103 17.3204 16.4308C17.4401 16.5513 17.5 16.7006 17.5 16.8787C17.5 17.0568 17.4401 17.2049 17.3204 17.3229C17.2006 17.441 17.0521 17.5 16.875 17.5H14.9792C14.8021 17.5 14.6537 17.4401 14.534 17.3202C14.4141 17.2005 14.3542 17.0521 14.3542 16.875V4.6875H12.5417V16.875C12.5417 17.0521 12.4818 17.2005 12.3621 17.3202C12.2422 17.4401 12.0938 17.5 11.9167 17.5H3.125ZM10.2292 10C10.2292 9.76389 10.1493 9.56597 9.98958 9.40625C9.82986 9.24653 9.63194 9.16667 9.39583 9.16667C9.15972 9.16667 8.96181 9.24653 8.80208 9.40625C8.64236 9.56597 8.5625 9.76389 8.5625 10C8.5625 10.2361 8.64236 10.434 8.80208 10.5938C8.96181 10.7535 9.15972 10.8333 9.39583 10.8333C9.63194 10.8333 9.82986 10.7535 9.98958 10.5938C10.1493 10.434 10.2292 10.2361 10.2292 10ZM5.66667 16.25H11.2917V3.75H5.66667V16.25Z" fill="#423E3E"/>
</svg>
