<svg width="24" height="24" viewBox="0 0 24 24" fill="none" xmlns="http://www.w3.org/2000/svg">
<path d="M11.2512 20.5006V16.0006H9.00122C7.61789 16.0006 6.43872 15.5131 5.46372 14.5381C4.48872 13.5631 4.00122 12.3839 4.00122 11.0006C4.00122 10.0006 4.27622 9.07978 4.82622 8.23811C5.37622 7.39644 6.11789 6.78394 7.05122 6.40061C7.20122 5.15061 7.74705 4.10478 8.68872 3.26311C9.63039 2.42144 10.7346 2.00061 12.0012 2.00061C13.2679 2.00061 14.3721 2.42144 15.3137 3.26311C16.2554 4.10478 16.8012 5.15061 16.9512 6.40061C17.8846 6.78394 18.6262 7.39644 19.1762 8.23811C19.7262 9.07978 20.0012 10.0006 20.0012 11.0006C20.0012 12.3839 19.5137 13.5631 18.5387 14.5381C17.5637 15.5131 16.3846 16.0006 15.0012 16.0006H12.7512V20.5006H17.7512C17.9637 20.5006 18.1419 20.5729 18.2857 20.7176C18.4294 20.8621 18.5012 21.0413 18.5012 21.2551C18.5012 21.4688 18.4294 21.6464 18.2857 21.7881C18.1419 21.9298 17.9637 22.0006 17.7512 22.0006H6.50122C6.28872 22.0006 6.11064 21.9283 5.96697 21.7836C5.82314 21.6391 5.75122 21.4599 5.75122 21.2461C5.75122 21.0324 5.82314 20.8548 5.96697 20.7131C6.11064 20.5714 6.28872 20.5006 6.50122 20.5006H11.2512ZM9.00122 14.5006H15.0012C15.9734 14.5006 16.7998 14.1604 17.4805 13.4799C18.161 12.7992 18.5012 11.9728 18.5012 11.0006C18.5012 10.3006 18.3012 9.66311 17.9012 9.08811C17.5012 8.51311 16.9846 8.08394 16.3512 7.80061L15.5512 7.45061L15.4512 6.57561C15.3346 5.69228 14.9497 4.95894 14.2967 4.37561C13.6436 3.79228 12.8784 3.50061 12.0012 3.50061C11.1241 3.50061 10.3589 3.79228 9.70572 4.37561C9.05272 4.95894 8.66789 5.69228 8.55122 6.57561L8.45122 7.45061L7.65122 7.80061C7.01789 8.08394 6.50122 8.51503 6.10122 9.09386C5.70122 9.67253 5.50122 10.3091 5.50122 11.0036C5.50122 11.9683 5.84147 12.7923 6.52197 13.4756C7.20264 14.1589 8.02905 14.5006 9.00122 14.5006Z" fill="#423E3E"/>
</svg>
