<svg width="24" height="24" viewBox="0 0 24 24" fill="none" xmlns="http://www.w3.org/2000/svg">
<path d="M10.6 22C9.75 22 9.10417 21.7458 8.6625 21.2375C8.22083 20.7292 8 20.15 8 19.5C8 19.0667 8.09583 18.6458 8.2875 18.2375C8.47917 17.8292 8.775 17.4917 9.175 17.225C9.54167 16.9917 9.84583 16.6792 10.0875 16.2875C10.3292 15.8958 10.5083 15.3583 10.625 14.675C10.6083 14.675 10.6 14.6708 10.6 14.6625C10.6 14.6542 10.5833 14.6417 10.55 14.625L7.65 15.65C7.36667 15.75 7.09167 15.8333 6.825 15.9C6.55833 15.9667 6.28333 16 6 16C4.95 16 4.02083 15.5417 3.2125 14.625C2.40417 13.7083 2 12.3667 2 10.6C2 9.75 2.25417 9.10417 2.7625 8.6625C3.27083 8.22083 3.84167 8 4.475 8C4.90833 8 5.33333 8.09583 5.75 8.2875C6.16667 8.47917 6.50833 8.775 6.775 9.175C7.00833 9.54167 7.3375 9.85417 7.7625 10.1125C8.1875 10.3708 8.70833 10.5417 9.325 10.625C9.33617 10.6083 9.34725 10.5917 9.35825 10.575C9.36942 10.5583 9.375 10.5417 9.375 10.525L8.35 7.65C8.25 7.36667 8.16667 7.09167 8.1 6.825C8.03333 6.55833 8 6.29167 8 6.025C8 4.95833 8.45833 4.02083 9.375 3.2125C10.2917 2.40417 11.6333 2 13.4 2C14.25 2 14.8958 2.25417 15.3375 2.7625C15.7792 3.27083 16 3.84167 16 4.475C16 4.90833 15.9042 5.33333 15.7125 5.75C15.5208 6.16667 15.225 6.50833 14.825 6.775C14.3917 7.05833 14.0542 7.43333 13.8125 7.9C13.5708 8.36667 13.4333 8.85 13.4 9.35C13.4167 9.36667 13.4292 9.37083 13.4375 9.3625C13.4458 9.35417 13.4583 9.36667 13.475 9.4L16.35 8.325C16.6333 8.225 16.9042 8.14583 17.1625 8.0875C17.4208 8.02917 17.6917 8 17.975 8C19.325 8 20.3333 8.55833 21 9.675C21.6667 10.7917 22 12.0333 22 13.4C22 14.25 21.7333 14.8958 21.2 15.3375C20.6667 15.7792 20.075 16 19.425 16C19.0083 16 18.6042 15.9042 18.2125 15.7125C17.8208 15.5208 17.4917 15.225 17.225 14.825C16.9917 14.4583 16.6792 14.1542 16.2875 13.9125C15.8958 13.6708 15.3583 13.4833 14.675 13.35C14.6583 13.3833 14.645 13.4088 14.635 13.4265C14.625 13.4442 14.6133 13.4603 14.6 13.475L15.65 16.35C15.75 16.6167 15.8333 16.8708 15.9 17.1125C15.9667 17.3542 16 17.6083 16 17.875C16.0167 18.9583 15.5667 19.9167 14.65 20.75C13.7333 21.5833 12.3833 22 10.6 22ZM12 13.5C12.4167 13.5 12.7708 13.3542 13.0625 13.0625C13.3542 12.7708 13.5 12.4167 13.5 12C13.5 11.5833 13.3542 11.2292 13.0625 10.9375C12.7708 10.6458 12.4167 10.5 12 10.5C11.5833 10.5 11.2292 10.6458 10.9375 10.9375C10.6458 11.2292 10.5 11.5833 10.5 12C10.5 12.4167 10.6458 12.7708 10.9375 13.0625C11.2292 13.3542 11.5833 13.5 12 13.5ZM10.55 9.375C10.75 9.29167 10.9667 9.21667 11.2 9.15C11.4333 9.08333 11.6667 9.03333 11.9 9C12.0333 8.25 12.2792 7.575 12.6375 6.975C12.9958 6.375 13.45 5.89167 14 5.525C14.1667 5.40833 14.2917 5.2625 14.375 5.0875C14.4583 4.9125 14.5 4.70833 14.5 4.475C14.5 4.20133 14.4125 3.97042 14.2375 3.78225C14.0625 3.59408 13.7833 3.5 13.4 3.5C12.6833 3.5 11.8625 3.67125 10.9375 4.01375C10.0125 4.35608 9.53333 5.02542 9.5 6.02175C9.5 6.20858 9.52083 6.385 9.5625 6.551C9.60417 6.717 9.65 6.86667 9.7 7L10.55 9.375ZM6 14.5C6.23333 14.5 6.56667 14.4333 7 14.3L9.375 13.45C9.24167 13.2167 9.14583 12.9833 9.0875 12.75C9.02917 12.5167 9 12.3 9 12.1C8.25 11.9667 7.575 11.7208 6.975 11.3625C6.375 11.0042 5.89167 10.55 5.525 10C5.40833 9.83333 5.25 9.70833 5.05 9.625C4.85 9.54167 4.65833 9.5 4.475 9.5C4.15833 9.5 3.91667 9.5875 3.75 9.7625C3.58333 9.9375 3.5 10.2167 3.5 10.6C3.5 11.6323 3.71358 12.5404 4.14075 13.3243C4.56775 14.1081 5.1875 14.5 6 14.5ZM10.6 20.5C11.4855 20.5 12.3569 20.3083 13.2143 19.925C14.0714 19.5417 14.5 18.8833 14.5 17.95C14.5 17.7667 14.4833 17.6083 14.45 17.475C14.4167 17.3417 14.3667 17.1833 14.3 17L13.45 14.625C13.2333 14.725 13.0125 14.8083 12.7875 14.875C12.5625 14.9417 12.3333 14.9833 12.1 15C11.9667 15.75 11.7208 16.425 11.3625 17.025C11.0042 17.625 10.55 18.1083 10 18.475C9.85 18.575 9.72917 18.7292 9.6375 18.9375C9.54583 19.1458 9.5 19.3417 9.5 19.525C9.51667 19.775 9.60833 20 9.775 20.2C9.94167 20.4 10.2167 20.5 10.6 20.5ZM19.425 14.5C19.7055 14.5 19.9548 14.4236 20.1728 14.2708C20.3909 14.1181 20.5 13.8278 20.5 13.4C20.5 12.6667 20.3292 11.8417 19.9875 10.925C19.6458 10.0083 18.9681 9.53333 17.9542 9.5C17.7681 9.5 17.5958 9.51667 17.4375 9.55C17.2792 9.58333 17.1333 9.625 17 9.675L14.625 10.55C14.7083 10.6833 14.7917 10.8958 14.875 11.1875C14.9583 11.4792 15 11.7167 15 11.9C15.75 12.0333 16.425 12.2792 17.025 12.6375C17.625 12.9958 18.1083 13.45 18.475 14C18.575 14.1333 18.7139 14.25 18.8918 14.35C19.0694 14.45 19.2472 14.5 19.425 14.5Z" fill="#423E3E"/>
</svg>
