<svg width="24" height="24" viewBox="0 0 24 24" fill="none" xmlns="http://www.w3.org/2000/svg">
<path d="M2.75 13.25H7V11.5H4.75C4.5375 11.5 4.35942 11.4277 4.21575 11.283C4.07192 11.1385 4 10.9593 4 10.7455C4 10.5318 4.07192 10.3542 4.21575 10.2125C4.35942 10.0708 4.5375 10 4.75 10H7C7.4125 10 7.76567 10.1468 8.0595 10.4405C8.35317 10.7343 8.5 11.0875 8.5 11.5V13.25H11.25V5.85C11.25 4.78333 11.6292 3.875 12.3875 3.125C13.1458 2.375 14.0583 2 15.125 2C15.8583 2 16.525 2.1875 17.125 2.5625C17.725 2.9375 18.1917 3.45 18.525 4.1L19.225 5.525C19.325 5.70833 19.3375 5.90417 19.2625 6.1125C19.1875 6.32083 19.0583 6.46667 18.875 6.55C18.6917 6.63333 18.4958 6.64167 18.2875 6.575C18.0792 6.50833 17.9333 6.38333 17.85 6.2L17.175 4.8C16.975 4.41667 16.6879 4.10417 16.3138 3.8625C15.9396 3.62083 15.5374 3.5 15.1072 3.5C14.4524 3.5 13.8958 3.7285 13.4375 4.1855C12.9792 4.64233 12.75 5.19717 12.75 5.85V13.25H15.5V11.5C15.5 11.0875 15.6469 10.7343 15.9408 10.4405C16.2344 10.1468 16.5875 10 17 10H19.25C19.4625 10 19.6407 10.0723 19.7845 10.217C19.9282 10.3615 20 10.5407 20 10.7545C20 10.9682 19.9282 11.1458 19.7845 11.2875C19.6407 11.4292 19.4625 11.5 19.25 11.5H17V13.25H21.25C21.4625 13.25 21.6407 13.3223 21.7845 13.467C21.9282 13.6115 22 13.7907 22 14.0045C22 14.2182 21.9282 14.3958 21.7845 14.5375C21.6407 14.6792 21.4625 14.75 21.25 14.75H2.75C2.5375 14.75 2.35942 14.6777 2.21575 14.533C2.07192 14.3885 2 14.2093 2 13.9955C2 13.7818 2.07192 13.6042 2.21575 13.4625C2.35942 13.3208 2.5375 13.25 2.75 13.25ZM5.5 21C5.0875 21 4.73442 20.8531 4.44075 20.5592C4.14692 20.2656 4 19.9125 4 19.5V14.75H5.5V19.5H18.5V14.75H20V19.25C20 19.7312 19.8287 20.1432 19.486 20.486C19.1433 20.8287 18.7313 21 18.25 21H5.5Z" fill="#423E3E"/>
</svg>
