<svg width="24" height="24" viewBox="0 0 24 24" fill="none" xmlns="http://www.w3.org/2000/svg">
<path d="M7.05023 9.00293C7.32472 9.03066 7.52493 9.27522 7.4975 9.5498L6.9975 14.5498C6.96999 14.8244 6.72519 15.0243 6.45062 14.9971C6.1759 14.9695 5.97588 14.7249 6.00336 14.4502L6.50336 9.4502C6.5309 9.17549 6.77551 8.97546 7.05023 9.00293Z" fill="#423E3E"/>
<path d="M12.0004 10.5C12.2764 10.5002 12.5004 10.724 12.5004 11V13C12.5004 13.276 12.2764 13.4998 12.0004 13.5C11.7243 13.5 11.5004 13.2761 11.5004 13V11C11.5004 10.7239 11.7243 10.5 12.0004 10.5Z" fill="#423E3E"/>
<path d="M13.0004 6C13.2764 6.00023 13.5004 6.224 13.5004 6.5V7.5C13.5004 7.776 13.2764 7.99977 13.0004 8C12.7243 8 12.5004 7.77614 12.5004 7.5V6.5C12.5004 6.22386 12.7243 6 13.0004 6Z" fill="#423E3E"/>
<path fill-rule="evenodd" clip-rule="evenodd" d="M20.0004 3.25C20.3795 3.25021 20.6989 3.53374 20.7446 3.91016L22.7446 20.4102C22.7702 20.6229 22.7039 20.8366 22.562 20.9971C22.4197 21.1576 22.2149 21.2499 22.0004 21.25H2.00043C1.78589 21.25 1.58124 21.1576 1.4389 20.9971C1.29681 20.8365 1.23059 20.623 1.25629 20.4102L3.25629 3.91016L3.28558 3.77344C3.38253 3.46699 3.66855 3.25 4.00043 3.25H20.0004ZM2.84613 19.75H3.58832L4.29242 13.9395C4.32587 13.6657 4.57425 13.4709 4.84808 13.5039C5.12198 13.5373 5.31779 13.7866 5.28461 14.0605L4.59515 19.75H7.82074L8.52387 4.75H6.41254L5.99652 8.18555C5.96311 8.45933 5.71372 8.65406 5.43988 8.62109C5.16596 8.58767 4.97112 8.33845 5.00433 8.06445L5.4057 4.75H4.66449L2.84613 19.75ZM9.32269 19.75H11.5004V15.5C11.5004 15.2239 11.7243 15 12.0004 15C12.2764 15.0002 12.5004 15.224 12.5004 15.5V19.75H14.7377L14.0346 4.75H10.0258L9.32269 19.75ZM16.2397 19.75H18.4301L17.7524 12.2949C17.7276 12.0201 17.9306 11.7769 18.2055 11.752C18.4459 11.7305 18.662 11.883 18.7289 12.1055L18.7485 12.2051L19.434 19.75H21.1547L19.3364 4.75H18.0707L18.3735 8.08008L18.3725 8.18066C18.3469 8.41181 18.1609 8.60098 17.9203 8.62305C17.6455 8.64784 17.4024 8.44479 17.3774 8.16992L17.0668 4.75H15.5366L16.2397 19.75Z" fill="#423E3E"/>
</svg>
