<svg width="24" height="24" viewBox="0 0 24 24" fill="none" xmlns="http://www.w3.org/2000/svg">
<path fill-rule="evenodd" clip-rule="evenodd" d="M19.25 3C20.2165 3 21 3.7835 21 4.75V19.25C21 20.2165 20.2165 21 19.25 21H4.75C3.7835 21 3 20.2165 3 19.25V4.75C3 3.7835 3.7835 3 4.75 3H19.25ZM12 10.75C12 11.4404 11.4404 12 10.75 12H4.5V19.25C4.5 19.3881 4.61193 19.5 4.75 19.5H9.5V15H7.25C6.83579 15 6.5 14.6642 6.5 14.25C6.5 13.8358 6.83579 13.5 7.25 13.5H9.75C10.4404 13.5 11 14.0596 11 14.75V19.5H13.5V14.75C13.5 14.0596 14.0596 13.5 14.75 13.5H19.5V12H17C16.5858 12 16.25 11.6642 16.25 11.25C16.25 10.8358 16.5858 10.5 17 10.5H19.5V4.75C19.5 4.61193 19.3881 4.5 19.25 4.5H12V10.75ZM15 19.5H19.25C19.3881 19.5 19.5 19.3881 19.5 19.25V15H15V19.5ZM4.75 4.5C4.61193 4.5 4.5 4.61193 4.5 4.75V10.5H10.5V4.5H4.75Z" fill="#423E3E"/>
</svg>
