<svg width="24" height="24" viewBox="0 0 24 24" fill="none" xmlns="http://www.w3.org/2000/svg">
<path fill-rule="evenodd" clip-rule="evenodd" d="M11.4951 6.04472C11.687 5.97535 11.9002 5.98665 12.085 6.0789L23.085 11.5789C23.339 11.706 23.5 11.9657 23.5 12.2498C23.4999 12.5338 23.339 12.7937 23.085 12.9207L12.085 18.4207C11.8741 18.526 11.6259 18.526 11.415 18.4207L0.415039 12.9207C0.161011 12.7937 7.61196e-05 12.5338 0 12.2498C-9.1002e-09 11.9657 0.160998 11.706 0.415039 11.5789L11.415 6.0789L11.4951 6.04472ZM7.92676 14.9998L11.75 16.9109L15.5732 14.9998L11.75 13.0877L7.92676 14.9998ZM2.42676 12.2498L6.25 14.1609L10.0732 12.2498L6.25 10.3377L2.42676 12.2498ZM13.4268 12.2498L17.25 14.1609L21.0732 12.2498L17.25 10.3377L13.4268 12.2498ZM7.92676 9.4998L11.75 11.4109L15.5732 9.4998L11.75 7.58769L7.92676 9.4998Z" fill="#423E3E"/>
</svg>
