<svg width="24" height="24" viewBox="0 0 24 24" fill="none" xmlns="http://www.w3.org/2000/svg">
<path d="M6.52504 16.85V20.25C6.52504 20.4625 6.45271 20.6406 6.30804 20.7843C6.16354 20.9281 5.98437 21 5.77054 21C5.55687 21 5.37921 20.9281 5.23754 20.7843C5.09587 20.6406 5.02504 20.4625 5.02504 20.25V16.85H3.70004C3.48754 16.85 3.30946 16.7777 3.16579 16.633C3.02196 16.4885 2.95004 16.3093 2.95004 16.0955C2.95004 15.8818 3.02196 15.7042 3.16579 15.5625C3.30946 15.4208 3.48754 15.35 3.70004 15.35H5.02504V10.2L2.47504 12.125C2.30771 12.2583 2.12837 12.3125 1.93704 12.2875C1.74571 12.2625 1.58337 12.1667 1.45004 12C1.31671 11.8333 1.26671 11.65 1.30004 11.45C1.33337 11.25 1.43337 11.0833 1.60004 10.95L11.1 3.7C11.2334 3.6 11.3768 3.52083 11.5303 3.4625C11.6838 3.40417 11.8404 3.375 12 3.375C12.1597 3.375 12.3163 3.40417 12.4698 3.4625C12.6233 3.52083 12.7667 3.6 12.9 3.7L22.4 10.95C22.5667 11.0833 22.6625 11.25 22.6875 11.45C22.7125 11.65 22.6584 11.8333 22.525 12C22.3917 12.1667 22.2294 12.2625 22.038 12.2875C21.8467 12.3125 21.6674 12.2583 21.5 12.125L18.95 10.175V15.35H20.275C20.4875 15.35 20.6657 15.4223 20.8095 15.567C20.9532 15.7115 21.025 15.8907 21.025 16.1045C21.025 16.3182 20.9532 16.4958 20.8095 16.6375C20.6657 16.7792 20.4875 16.85 20.275 16.85H18.95V20.25C18.95 20.4625 18.8777 20.6406 18.733 20.7843C18.5885 20.9281 18.4094 21 18.1955 21C17.9819 21 17.8042 20.9281 17.6625 20.7843C17.5209 20.6406 17.45 20.4625 17.45 20.25V16.85H12.75V20.25C12.75 20.4625 12.6777 20.6406 12.533 20.7843C12.3885 20.9281 12.2094 21 11.9955 21C11.7819 21 11.6042 20.9281 11.4625 20.7843C11.3209 20.6406 11.25 20.4625 11.25 20.25V16.85H6.52504ZM6.52504 15.35H11.25V5.45L6.52504 9.05V15.35ZM12.75 15.35H17.45V9.05L12.75 5.45V15.35Z" fill="#423E3E"/>
</svg>
