<svg width="24" height="24" viewBox="0 0 24 24" fill="none" xmlns="http://www.w3.org/2000/svg">
<path d="M8.47172 7.75061C8.25806 7.75061 8.08039 7.67869 7.93872 7.53486C7.79705 7.39119 7.72622 7.21311 7.72622 7.00061V5.55061C7.72622 5.33811 7.79855 5.15994 7.94322 5.01611C8.08772 4.87244 8.26689 4.80061 8.48072 4.80061C8.69439 4.80061 8.87206 4.87244 9.01372 5.01611C9.15539 5.15994 9.22622 5.33811 9.22622 5.55061V7.00061C9.22622 7.21311 9.15389 7.39119 9.00922 7.53486C8.86472 7.67869 8.68555 7.75061 8.47172 7.75061ZM8.47172 16.7756C8.25806 16.7756 8.08039 16.7037 7.93872 16.5599C7.79705 16.4162 7.72622 16.2381 7.72622 16.0256V12.6256C7.72622 12.4131 7.79855 12.2349 7.94322 12.0911C8.08772 11.9474 8.26689 11.8756 8.48072 11.8756C8.69439 11.8756 8.87206 11.9474 9.01372 12.0911C9.15539 12.2349 9.22622 12.4131 9.22622 12.6256V16.0256C9.22622 16.2381 9.15389 16.4162 9.00922 16.5599C8.86472 16.7037 8.68555 16.7756 8.47172 16.7756ZM5.50122 22.0006C5.08872 22.0006 4.73564 21.8537 4.44197 21.5599C4.14814 21.2662 4.00122 20.9131 4.00122 20.5006V3.50061C4.00122 3.08811 4.14814 2.73494 4.44197 2.44111C4.73564 2.14744 5.08872 2.00061 5.50122 2.00061H18.5012C18.9137 2.00061 19.2669 2.14744 19.5607 2.44111C19.8544 2.73494 20.0012 3.08811 20.0012 3.50061V20.5006C20.0012 20.9131 19.8544 21.2662 19.5607 21.5599C19.2669 21.8537 18.9137 22.0006 18.5012 22.0006H5.50122ZM5.50122 20.5006H18.5012V10.5506H5.50122V20.5006ZM5.50122 9.05061H18.5012V3.50061H5.50122V9.05061Z" fill="#423E3E"/>
</svg>
