<svg width="20" height="20" viewBox="0 0 20 20" fill="none" xmlns="http://www.w3.org/2000/svg">
<path d="M2.93774 18.3333C2.57663 18.3333 2.27802 18.2153 2.04191 17.9792C1.8058 17.743 1.68774 17.4444 1.68774 17.0833V2.91666C1.68774 2.59721 1.8058 2.30902 2.04191 2.05207C2.27802 1.79513 2.57663 1.66666 2.93774 1.66666H17.1044C17.4239 1.66666 17.712 1.79513 17.969 2.05207C18.2259 2.30902 18.3544 2.59721 18.3544 2.91666V17.0833C18.3544 17.4444 18.2259 17.743 17.969 17.9792C17.712 18.2153 17.4239 18.3333 17.1044 18.3333H2.93774ZM2.93774 17.0833H17.1044V2.91666H2.93774V17.0833ZM6.78816 11.8125C6.6101 11.8125 6.46205 11.7522 6.34399 11.6317C6.22594 11.5112 6.16691 11.3619 6.16691 11.1837C6.16691 11.0057 6.22719 10.8576 6.34774 10.7396C6.46816 10.6215 6.61747 10.5625 6.79566 10.5625C6.97372 10.5625 7.12177 10.6228 7.23983 10.7433C7.35788 10.8637 7.41691 11.013 7.41691 11.1912C7.41691 11.3693 7.35663 11.5174 7.23608 11.6354C7.11566 11.7535 6.96635 11.8125 6.78816 11.8125ZM13.2465 11.8125C13.0684 11.8125 12.9204 11.7522 12.8023 11.6317C12.6843 11.5112 12.6252 11.3619 12.6252 11.1837C12.6252 11.0057 12.6855 10.8576 12.8061 10.7396C12.9265 10.6215 13.0758 10.5625 13.254 10.5625C13.432 10.5625 13.5801 10.6228 13.6982 10.7433C13.8162 10.8637 13.8752 11.013 13.8752 11.1912C13.8752 11.3693 13.815 11.5174 13.6944 11.6354C13.574 11.7535 13.4247 11.8125 13.2465 11.8125ZM4.81649 15.625C4.99455 15.625 5.1426 15.5651 5.26066 15.4452C5.37872 15.3255 5.43774 15.1771 5.43774 15V13.7917H14.6044V15C14.6044 15.1771 14.6647 15.3255 14.7852 15.4452C14.9057 15.5651 15.055 15.625 15.2332 15.625C15.4112 15.625 15.5593 15.5651 15.6773 15.4452C15.7954 15.3255 15.8544 15.1771 15.8544 15V9.66666C15.8544 9.5986 15.8509 9.53297 15.844 9.46978C15.837 9.40659 15.8197 9.34027 15.7919 9.27082L14.5419 5.62499C14.4586 5.37804 14.3075 5.17742 14.0888 5.02311C13.87 4.86881 13.6252 4.79166 13.3544 4.79166H6.68774C6.41691 4.79166 6.17212 4.86881 5.95337 5.02311C5.73462 5.17742 5.58358 5.37804 5.50024 5.62499L4.25024 9.27082C4.22247 9.34027 4.2051 9.40659 4.19816 9.46978C4.19122 9.53297 4.18774 9.5986 4.18774 9.66666V15C4.18774 15.1771 4.24802 15.3255 4.36858 15.4452C4.48899 15.5651 4.6383 15.625 4.81649 15.625ZM5.79191 8.58332L6.62524 6.04166H13.4169L14.2711 8.58332H5.79191ZM5.43774 12.5417V9.83332H14.6044V12.5417H5.43774Z" fill="#423E3E"/>
</svg>
