<svg width="24" height="24" viewBox="0 0 24 24" fill="none" xmlns="http://www.w3.org/2000/svg">
<path d="M10.8965 12.8965C11.0917 12.7012 11.4083 12.7012 11.6035 12.8965C11.7988 13.0917 11.7988 13.4083 11.6035 13.6035L8.60352 16.6035C8.40825 16.7988 8.09175 16.7988 7.89648 16.6035C7.70122 16.4083 7.70122 16.0917 7.89648 15.8965L10.8965 12.8965Z" fill="black"/>
<path d="M12.8965 6.39648C13.0917 6.20122 13.4083 6.20122 13.6035 6.39648C13.7988 6.59175 13.7988 6.90825 13.6035 7.10352L7.10352 13.6035C6.90825 13.7988 6.59175 13.7988 6.39648 13.6035C6.20122 13.4083 6.20122 13.0917 6.39648 12.8965L12.8965 6.39648Z" fill="black"/>
<path fill-rule="evenodd" clip-rule="evenodd" d="M18.75 4.25C19.0261 4.25 19.25 4.47386 19.25 4.75V18.75C19.25 19.0261 19.0261 19.25 18.75 19.25H4.75C4.47386 19.25 4.25 19.0261 4.25 18.75V4.75C4.25 4.47386 4.47386 4.25 4.75 4.25H18.75ZM5.25 18.25H18.25V5.25H5.25V18.25Z" fill="black"/>
<path fill-rule="evenodd" clip-rule="evenodd" d="M20.75 2C21.1642 2 21.5 2.33579 21.5 2.75V20.75C21.5 21.1642 21.1642 21.5 20.75 21.5H2.75C2.33579 21.5 2 21.1642 2 20.75V2.75C2 2.33579 2.33579 2 2.75 2H20.75ZM3.5 20H20V3.5H3.5V20Z" fill="black"/>
</svg>
