<svg width="24" height="24" viewBox="0 0 24 24" fill="none" xmlns="http://www.w3.org/2000/svg">
<path d="M12 22.0002C9.76667 22.0002 7.875 21.2252 6.325 19.6752C4.775 18.1252 4 16.2335 4 14.0002C4 12.0668 4.59583 10.1918 5.7875 8.37517C6.97917 6.5585 8.61667 5.0085 10.7 3.72517C10.9833 3.54184 11.2708 3.53767 11.5625 3.71267C11.8542 3.88767 12 4.15017 12 4.50017V6.30017C12 6.86684 12.1958 7.34184 12.5875 7.72517C12.9792 8.1085 13.4583 8.30017 14.025 8.30017C14.325 8.30017 14.6042 8.23767 14.8625 8.11267C15.1208 7.98767 15.35 7.80017 15.55 7.55017C15.6833 7.40017 15.8333 7.296 16 7.23767C16.1667 7.17934 16.325 7.20017 16.475 7.30017C17.575 8.05017 18.4375 9.01684 19.0625 10.2002C19.6875 11.3835 20 12.6502 20 14.0002C20 16.2335 19.225 18.1252 17.675 19.6752C16.125 21.2252 14.2333 22.0002 12 22.0002ZM5.5 14.0002C5.5 15.0502 5.7375 16.0377 6.2125 16.9627C6.6875 17.8877 7.35 18.6585 8.2 19.2752C8.13333 19.0752 8.08333 18.871 8.05 18.6627C8.01667 18.4543 8 18.2502 8 18.0502C8 17.5168 8.1 17.0168 8.3 16.5502C8.5 16.0835 8.79167 15.6585 9.175 15.2752L12 12.5002L14.825 15.2752C15.2083 15.6585 15.5 16.0835 15.7 16.5502C15.9 17.0168 16 17.5168 16 18.0502C16 18.2502 15.9833 18.4543 15.95 18.6627C15.9167 18.871 15.8667 19.0752 15.8 19.2752C16.65 18.6585 17.3125 17.8877 17.7875 16.9627C18.2625 16.0377 18.5 15.0502 18.5 14.0002C18.5 13.1002 18.3083 12.221 17.925 11.3627C17.5417 10.5043 16.9917 9.71684 16.275 9.00017C15.925 9.25017 15.5583 9.446 15.175 9.58767C14.7917 9.72934 14.4083 9.80017 14.025 9.80017C13.0083 9.80017 12.1667 9.45434 11.5 8.76267C10.8333 8.071 10.5 7.20017 10.5 6.15017V5.65017C8.96667 6.75017 7.75 8.05434 6.85 9.56267C5.95 11.071 5.5 12.5502 5.5 14.0002ZM12 14.6002L10.225 16.3502C9.99167 16.5835 9.8125 16.8418 9.6875 17.1252C9.5625 17.4085 9.5 17.7168 9.5 18.0502C9.5 18.7335 9.74167 19.3127 10.225 19.7877C10.7083 20.2627 11.3 20.5002 12 20.5002C12.7 20.5002 13.2917 20.2627 13.775 19.7877C14.2583 19.3127 14.5 18.7335 14.5 18.0502C14.5 17.7168 14.4375 17.4085 14.3125 17.1252C14.1875 16.8418 14.0083 16.5835 13.775 16.3502L12 14.6002Z" fill="#423E3E"/>
</svg>
