<svg width="24" height="24" viewBox="0 0 24 24" fill="none" xmlns="http://www.w3.org/2000/svg">
<path d="M12.006 17.5C13.5353 17.5 14.8333 16.9647 15.9 15.894C16.9667 14.8235 17.5 13.5235 17.5 11.994C17.5 10.4647 16.9647 9.16667 15.894 8.1C14.8235 7.03333 13.5235 6.5 11.994 6.5C10.4647 6.5 9.16667 7.03533 8.1 8.106C7.03333 9.1765 6.5 10.4765 6.5 12.006C6.5 13.5353 7.03533 14.8333 8.106 15.9C9.1765 16.9667 10.4765 17.5 12.006 17.5ZM12 16C11.5167 16 11.05 15.9125 10.6 15.7375C10.15 15.5625 9.74167 15.3167 9.375 15H14.625C14.2583 15.3167 13.85 15.5625 13.4 15.7375C12.95 15.9125 12.4833 16 12 16ZM8.55 14C8.41667 13.7667 8.30833 13.525 8.225 13.275C8.14167 13.025 8.08333 12.7667 8.05 12.5H15.95C15.9167 12.7667 15.8583 13.025 15.775 13.275C15.6917 13.525 15.5833 13.7667 15.45 14H8.55ZM8.05 11.5C8.08333 11.2333 8.14167 10.975 8.225 10.725C8.30833 10.475 8.41667 10.2333 8.55 10H15.45C15.5833 10.2333 15.6917 10.475 15.775 10.725C15.8583 10.975 15.9167 11.2333 15.95 11.5H8.05ZM9.375 9C9.74167 8.68333 10.15 8.4375 10.6 8.2625C11.05 8.0875 11.5167 8 12 8C12.4833 8 12.95 8.0875 13.4 8.2625C13.85 8.4375 14.2583 8.68333 14.625 9H9.375ZM4.5 21C4.0875 21 3.73442 20.8531 3.44075 20.5593C3.14692 20.2656 3 19.9125 3 19.5V4.5C3 4.0875 3.14692 3.73433 3.44075 3.4405C3.73442 3.14683 4.0875 3 4.5 3H19.5C19.9125 3 20.2657 3.14683 20.5595 3.4405C20.8532 3.73433 21 4.0875 21 4.5V19.5C21 19.9125 20.8532 20.2656 20.5595 20.5593C20.2657 20.8531 19.9125 21 19.5 21H4.5ZM4.5 19.5H19.5V4.5H4.5V19.5Z" fill="#423E3E"/>
</svg>
