<svg width="24" height="24" viewBox="0 0 24 24" fill="none" xmlns="http://www.w3.org/2000/svg">
<path d="M3.75 21C3.5375 21 3.35942 20.9277 3.21575 20.783C3.07192 20.6385 3 20.4593 3 20.2455C3 20.0318 3.07192 19.8542 3.21575 19.7125C3.35942 19.5708 3.5375 19.5 3.75 19.5H5V4.5C5 4.1 5.15 3.75 5.45 3.45C5.75 3.15 6.1 3 6.5 3H17.5C17.9 3 18.25 3.15 18.55 3.45C18.85 3.75 19 4.1 19 4.5V19.5H20.25C20.4625 19.5 20.6407 19.5723 20.7845 19.717C20.9282 19.8615 21 20.0407 21 20.2545C21 20.4682 20.9282 20.6458 20.7845 20.7875C20.6407 20.9292 20.4625 21 20.25 21H3.75ZM6.5 19.5H17.5V4.5H6.5V19.5ZM14.175 12.775C14.4158 12.775 14.6177 12.6936 14.7805 12.5308C14.9435 12.3678 15.025 12.1658 15.025 11.925C15.025 11.6842 14.9435 11.4823 14.7805 11.3193C14.6177 11.1564 14.4158 11.075 14.175 11.075C13.9342 11.075 13.7323 11.1564 13.5695 11.3193C13.4065 11.4823 13.325 11.6842 13.325 11.925C13.325 12.1658 13.4065 12.3678 13.5695 12.5308C13.7323 12.6936 13.9342 12.775 14.175 12.775Z" fill="#423E3E"/>
</svg>
