<svg width="24" height="24" viewBox="0 0 24 24" fill="none" xmlns="http://www.w3.org/2000/svg">
<path d="M10.5747 18.2748H4.42469C4.12469 18.2748 3.89969 18.1415 3.74969 17.8748C3.59969 17.6081 3.61635 17.3498 3.79969 17.0998L7.72469 11.4248H6.79969C6.49969 11.4248 6.27469 11.2915 6.12469 11.0248C5.97469 10.7581 5.99135 10.4998 6.17469 10.2498L11.3747 2.8748C11.458 2.7748 11.5539 2.69564 11.6622 2.6373C11.7705 2.57897 11.883 2.5498 11.9997 2.5498C12.1164 2.5498 12.2289 2.57897 12.3372 2.6373C12.4455 2.69564 12.5414 2.7748 12.6247 2.8748L17.8247 10.2498C18.008 10.4998 18.0247 10.7581 17.8747 11.0248C17.7247 11.2915 17.4997 11.4248 17.1997 11.4248H16.2997L20.1997 17.0998C20.383 17.3498 20.3997 17.6081 20.2497 17.8748C20.0997 18.1415 19.8747 18.2748 19.5747 18.2748H13.4497V21.2498C13.4497 21.4665 13.3789 21.6456 13.2372 21.7873C13.0955 21.929 12.9164 21.9998 12.6997 21.9998H11.3247C11.108 21.9998 10.9289 21.929 10.7872 21.7873C10.6455 21.6456 10.5747 21.4665 10.5747 21.2498V18.2748ZM5.89969 16.7748H10.6247H8.37469H15.6247H13.3997H18.1247H5.89969ZM5.89969 16.7748H18.1247L13.3997 9.9248H15.6247L11.9997 4.7748L8.37469 9.9248H10.6247L5.89969 16.7748Z" fill="#423E3E"/>
</svg>
