<svg width="24" height="24" viewBox="0 0 24 24" fill="none" xmlns="http://www.w3.org/2000/svg">
<path d="M5.50122 21.9997C5.08872 21.9997 4.73564 21.8528 4.44197 21.5589C4.14814 21.2653 4.00122 20.9122 4.00122 20.4997V3.49969C4.00122 3.08719 4.14814 2.73403 4.44197 2.44019C4.73564 2.14653 5.08872 1.99969 5.50122 1.99969H18.5012C18.9137 1.99969 19.2669 2.14653 19.5607 2.44019C19.8544 2.73403 20.0012 3.08719 20.0012 3.49969V20.4997C20.0012 20.9122 19.8544 21.2653 19.5607 21.5589C19.2669 21.8528 18.9137 21.9997 18.5012 21.9997H5.50122ZM5.50122 20.4997H18.5012V3.49969H5.50122V20.4997ZM12.0012 19.0247C13.3431 19.0247 14.4869 18.5519 15.4327 17.6062C16.3784 16.6604 16.8512 15.5165 16.8512 14.1747C16.8512 12.8329 16.3784 11.689 15.4327 10.7432C14.4869 9.79753 13.3431 9.32469 12.0012 9.32469C10.6594 9.32469 9.51555 9.79753 8.56972 10.7432C7.62405 11.689 7.15122 12.8329 7.15122 14.1747C7.15122 15.5165 7.62405 16.6604 8.56972 17.6062C9.51555 18.5519 10.6594 19.0247 12.0012 19.0247ZM12.0012 16.9247C11.6232 16.9247 11.2561 16.858 10.9 16.7247C10.5436 16.5914 10.2274 16.3914 9.95122 16.1247L13.9262 12.1497C14.2096 12.3997 14.4179 12.7044 14.5512 13.0637C14.6846 13.423 14.7512 13.7934 14.7512 14.1747C14.7512 14.9385 14.4839 15.5879 13.9492 16.1227C13.4144 16.6574 12.7651 16.9247 12.0012 16.9247ZM7.60572 6.29969C7.81939 6.29969 7.99705 6.22736 8.13872 6.08269C8.28039 5.93819 8.35122 5.75903 8.35122 5.54519C8.35122 5.33153 8.27889 5.15386 8.13422 5.01219C7.98972 4.87053 7.81055 4.79969 7.59672 4.79969C7.38305 4.79969 7.20539 4.87203 7.06372 5.01669C6.92205 5.16119 6.85122 5.34036 6.85122 5.55419C6.85122 5.76786 6.92355 5.94553 7.06822 6.08719C7.21272 6.22886 7.39189 6.29969 7.60572 6.29969ZM10.9557 6.29969C11.1694 6.29969 11.3471 6.22736 11.4887 6.08269C11.6304 5.93819 11.7012 5.75903 11.7012 5.54519C11.7012 5.33153 11.6289 5.15386 11.4842 5.01219C11.3397 4.87053 11.1606 4.79969 10.9467 4.79969C10.7331 4.79969 10.5554 4.87203 10.4137 5.01669C10.2721 5.16119 10.2012 5.34036 10.2012 5.55419C10.2012 5.76786 10.2736 5.94553 10.4182 6.08719C10.5627 6.22886 10.7419 6.29969 10.9557 6.29969Z" fill="#423E3E"/>
</svg>
