<svg width="20" height="20" viewBox="0 0 20 20" fill="none" xmlns="http://www.w3.org/2000/svg">
<path d="M17.0817 18.3325V5.62419C17.0817 5.09641 16.9011 4.65196 16.54 4.29085C16.1789 3.92974 15.7345 3.74919 15.2067 3.74919H14.165V5.04085C14.165 5.14794 14.1293 5.23724 14.058 5.30877C13.9864 5.38016 13.8971 5.41585 13.79 5.41585H9.12337C8.98448 5.41585 8.88379 5.33946 8.82129 5.18669C8.75879 5.03391 8.75532 4.90196 8.81087 4.79085L10.3942 1.37419C10.4636 1.20752 10.5775 1.07558 10.7359 0.978353C10.8942 0.881131 11.0789 0.83252 11.29 0.83252H13.2067C13.4805 0.83252 13.7086 0.936686 13.8913 1.14502C14.0738 1.35335 14.165 1.59641 14.165 1.87419V2.49919H15.2067C16.0817 2.49919 16.8213 2.80127 17.4255 3.40544C18.0296 4.0096 18.3317 4.74919 18.3317 5.62419V18.3325H17.0817ZM10.4775 4.16585H12.915V2.08252H11.415L10.4775 4.16585ZM3.95671 18.3325C3.3074 18.3325 2.76316 18.1129 2.324 17.6736C1.88469 17.2344 1.66504 16.6902 1.66504 16.0409V13.9575C1.66504 13.5547 1.81782 13.168 2.12337 12.7973C2.42893 12.4266 2.83171 12.2022 3.33171 12.1242V9.99919C3.33171 9.65544 3.45414 9.36113 3.699 9.11627C3.94372 8.87155 4.23796 8.74919 4.58171 8.74919H11.665C12.0088 8.74919 12.3031 8.87155 12.548 9.11627C12.7927 9.36113 12.915 9.65544 12.915 9.99919V12.1242C13.415 12.202 13.8178 12.4159 14.1234 12.7659C14.4289 13.1159 14.5817 13.5131 14.5817 13.9575V16.0409C14.5817 16.6902 14.3621 17.2344 13.923 17.6736C13.4836 18.1129 12.9393 18.3325 12.29 18.3325H3.95671ZM4.58171 9.99919V12.395C4.83171 12.6034 5.03309 12.8389 5.18587 13.1017C5.33865 13.3646 5.41504 13.6499 5.41504 13.9575V14.5825H10.8317V13.9575C10.8317 13.6499 10.9081 13.3646 11.0609 13.1017C11.2136 12.8389 11.415 12.6034 11.665 12.395V9.99919H4.58171ZM3.95671 17.0825H12.29C12.6025 17.0825 12.8543 16.974 13.0452 16.7569C13.2362 16.54 13.3317 16.3013 13.3317 16.0409V13.9575C13.3317 13.77 13.2744 13.619 13.1598 13.5044C13.0452 13.3898 12.8942 13.3325 12.7067 13.3325C12.5192 13.3325 12.3682 13.3898 12.2536 13.5044C12.139 13.619 12.0817 13.77 12.0817 13.9575V15.8325H4.16504V13.9575C4.16504 13.77 4.10775 13.619 3.99316 13.5044C3.87858 13.3898 3.72754 13.3325 3.54004 13.3325C3.35254 13.3325 3.2015 13.3898 3.08691 13.5044C2.97233 13.619 2.91504 13.77 2.91504 13.9575V16.0409C2.91504 16.3013 3.01052 16.54 3.2015 16.7569C3.39247 16.974 3.64421 17.0825 3.95671 17.0825Z" fill="#423E3E"/>
</svg>
