<svg width="24" height="24" viewBox="0 0 24 24" fill="none" xmlns="http://www.w3.org/2000/svg">
<path d="M11.994 15.5C12.9647 15.5 13.7917 15.1603 14.475 14.481C15.1583 13.8015 15.5 12.9765 15.5 12.006C15.5 11.0353 15.1603 10.2083 14.481 9.525C13.8015 8.84167 12.9765 8.5 12.006 8.5C11.0353 8.5 10.2083 8.83967 9.525 9.519C8.84167 10.1985 8.5 11.0235 8.5 11.994C8.5 12.9647 8.83967 13.7917 9.519 14.475C10.1985 15.1583 11.0235 15.5 11.994 15.5ZM12 17C10.6167 17 9.4375 16.5125 8.4625 15.5375C7.4875 14.5625 7 13.3833 7 12C7 10.6167 7.4875 9.4375 8.4625 8.4625C9.4375 7.4875 10.6167 7 12 7C13.3833 7 14.5625 7.4875 15.5375 8.4625C16.5125 9.4375 17 10.6167 17 12C17 13.3833 16.5125 14.5625 15.5375 15.5375C14.5625 16.5125 13.3833 17 12 17ZM1.75 12.75C1.5375 12.75 1.35942 12.6777 1.21575 12.533C1.07192 12.3885 1 12.2093 1 11.9955C1 11.7818 1.07192 11.6042 1.21575 11.4625C1.35942 11.3208 1.5375 11.25 1.75 11.25H4.25C4.4625 11.25 4.64067 11.3223 4.7845 11.467C4.92817 11.6115 5 11.7907 5 12.0045C5 12.2182 4.92817 12.3958 4.7845 12.5375C4.64067 12.6792 4.4625 12.75 4.25 12.75H1.75ZM19.75 12.75C19.5375 12.75 19.3594 12.6777 19.2157 12.533C19.0719 12.3885 19 12.2093 19 11.9955C19 11.7818 19.0719 11.6042 19.2157 11.4625C19.3594 11.3208 19.5375 11.25 19.75 11.25H22.25C22.4625 11.25 22.6407 11.3223 22.7845 11.467C22.9282 11.6115 23 11.7907 23 12.0045C23 12.2182 22.9282 12.3958 22.7845 12.5375C22.6407 12.6792 22.4625 12.75 22.25 12.75H19.75ZM11.9955 5C11.7818 5 11.6042 4.92808 11.4625 4.78425C11.3208 4.64058 11.25 4.4625 11.25 4.25V1.75C11.25 1.5375 11.3223 1.35933 11.467 1.2155C11.6115 1.07183 11.7907 1 12.0045 1C12.2182 1 12.3958 1.07183 12.5375 1.2155C12.6792 1.35933 12.75 1.5375 12.75 1.75V4.25C12.75 4.4625 12.6777 4.64058 12.533 4.78425C12.3885 4.92808 12.2093 5 11.9955 5ZM11.9955 23C11.7818 23 11.6042 22.9281 11.4625 22.7843C11.3208 22.6406 11.25 22.4625 11.25 22.25V19.75C11.25 19.5375 11.3223 19.3593 11.467 19.2155C11.6115 19.0718 11.7907 19 12.0045 19C12.2182 19 12.3958 19.0718 12.5375 19.2155C12.6792 19.3593 12.75 19.5375 12.75 19.75V22.25C12.75 22.4625 12.6777 22.6406 12.533 22.7843C12.3885 22.9281 12.2093 23 11.9955 23ZM6 7.05L4.575 5.65C4.425 5.5 4.35308 5.32 4.35925 5.11C4.36542 4.89983 4.4365 4.72067 4.5725 4.5725C4.72067 4.42417 4.89983 4.35 5.11 4.35C5.32 4.35 5.5 4.425 5.65 4.575L7.05 6C7.18333 6.15 7.25 6.325 7.25 6.525C7.25 6.725 7.18333 6.89583 7.05 7.0375C6.91667 7.17917 6.74583 7.25 6.5375 7.25C6.32917 7.25 6.15 7.18333 6 7.05ZM18.35 19.425L16.95 18C16.8167 17.85 16.75 17.6718 16.75 17.4655C16.75 17.2593 16.8208 17.0875 16.9625 16.95C17.1042 16.8 17.275 16.725 17.475 16.725C17.675 16.725 17.85 16.8 18 16.95L19.425 18.35C19.575 18.5 19.6469 18.68 19.6408 18.89C19.6346 19.1002 19.5635 19.2793 19.4275 19.4275C19.2793 19.5758 19.1002 19.65 18.89 19.65C18.68 19.65 18.5 19.575 18.35 19.425ZM16.95 7.05C16.8 6.9 16.725 6.725 16.725 6.525C16.725 6.325 16.8 6.15 16.95 6L18.35 4.575C18.5 4.425 18.68 4.35308 18.89 4.35925C19.1002 4.36542 19.2793 4.4365 19.4275 4.5725C19.5758 4.72067 19.65 4.89983 19.65 5.11C19.65 5.32 19.575 5.5 19.425 5.65L18 7.05C17.8667 7.18333 17.697 7.25 17.491 7.25C17.2848 7.25 17.1045 7.18333 16.95 7.05ZM4.5725 19.4275C4.42417 19.2793 4.35 19.1002 4.35 18.89C4.35 18.68 4.425 18.5 4.575 18.35L6 16.95C6.14667 16.8 6.32083 16.725 6.5225 16.725C6.72417 16.725 6.89675 16.8 7.04025 16.95C7.19675 17.1 7.275 17.275 7.275 17.475C7.275 17.675 7.2 17.85 7.05 18L5.65 19.425C5.5 19.575 5.32 19.6469 5.11 19.6408C4.89983 19.6346 4.72067 19.5635 4.5725 19.4275Z" fill="#423E3E"/>
</svg>
