<svg width="24" height="24" viewBox="0 0 24 24" fill="none" xmlns="http://www.w3.org/2000/svg">
<path d="M14.5738 23.0006H10.9988C10.7579 23.0006 10.556 22.9191 10.393 22.7561C10.2302 22.5933 10.1488 22.3914 10.1488 22.1506V15.9006C10.1488 15.6598 10.2302 15.4579 10.393 15.2949C10.556 15.132 10.7579 15.0506 10.9988 15.0506H12.0238V11.7256H3.49878C3.08628 11.7256 2.7332 11.5787 2.43953 11.2849C2.1457 10.9912 1.99878 10.6381 1.99878 10.2256V5.40061C1.99878 4.98811 2.1457 4.63494 2.43953 4.34111C2.7332 4.04744 3.08628 3.90061 3.49878 3.90061H5.57378V2.85061C5.57378 2.60978 5.6552 2.40794 5.81803 2.24511C5.98103 2.08211 6.18295 2.00061 6.42378 2.00061H19.1488C19.3896 2.00061 19.5914 2.08211 19.7543 2.24511C19.9173 2.40794 19.9988 2.60978 19.9988 2.85061V6.65061C19.9988 6.89144 19.9173 7.09328 19.7543 7.25611C19.5914 7.41911 19.3896 7.50061 19.1488 7.50061H6.42378C6.18295 7.50061 5.98103 7.41911 5.81803 7.25611C5.6552 7.09328 5.57378 6.89144 5.57378 6.65061V5.40061H3.49878V10.2256H12.0238C12.4363 10.2256 12.7894 10.3724 13.0833 10.6661C13.3769 10.9599 13.5238 11.3131 13.5238 11.7256V15.0506H14.5738C14.8146 15.0506 15.0164 15.132 15.1793 15.2949C15.3423 15.4579 15.4238 15.6598 15.4238 15.9006V22.1506C15.4238 22.3914 15.3423 22.5933 15.1793 22.7561C15.0164 22.9191 14.8146 23.0006 14.5738 23.0006ZM11.6488 21.5006H13.9238V16.5506H11.6488V21.5006ZM7.07378 6.00061H18.4988V3.50061H7.07378V6.00061Z" fill="#423E3E"/>
</svg>
