<svg width="24" height="24" viewBox="0 0 24 24" fill="none" xmlns="http://www.w3.org/2000/svg">
<path d="M11.2492 21.25V8.99999H3.19925C3.01591 8.99999 2.89508 8.91249 2.83675 8.73749C2.77841 8.56249 2.82425 8.42499 2.97425 8.32499L11.5742 2.29999C11.7104 2.21665 11.8528 2.17499 12.0015 2.17499C12.15 2.17499 12.2909 2.21665 12.4242 2.29999L21.0242 8.32499C21.1742 8.42499 21.2201 8.56249 21.1617 8.73749C21.1034 8.91249 20.9826 8.99999 20.7992 8.99999H12.7492V21.25C12.7492 21.4625 12.6769 21.6406 12.5322 21.7842C12.3877 21.9281 12.2086 22 11.9947 22C11.7811 22 11.6034 21.9281 11.4617 21.7842C11.3201 21.6406 11.2492 21.4625 11.2492 21.25ZM2.99925 21.25V16.7232L2.32425 13.075C2.29091 12.875 2.33675 12.6917 2.46175 12.525C2.58675 12.3583 2.75225 12.2583 2.95825 12.225C3.15225 12.1917 3.32841 12.2292 3.48675 12.3375C3.64508 12.4458 3.74091 12.6 3.77425 12.8L4.44925 16.25H7.74925C7.96175 16.25 8.13991 16.3218 8.28375 16.4655C8.42741 16.6093 8.49925 16.7875 8.49925 17V21.25C8.49925 21.4625 8.42691 21.6406 8.28225 21.7842C8.13775 21.9281 7.95858 22 7.74475 22C7.53108 22 7.35341 21.9281 7.21175 21.7842C7.07008 21.6406 6.99925 21.4625 6.99925 21.25V17.75H4.49925V21.25C4.49925 21.4625 4.42691 21.6406 4.28225 21.7842C4.13775 21.9281 3.95858 22 3.74475 22C3.53108 22 3.35341 21.9281 3.21175 21.7842C3.07008 21.6406 2.99925 21.4625 2.99925 21.25ZM15.4992 21.25V17C15.4992 16.7875 15.5712 16.6093 15.715 16.4655C15.8587 16.3218 16.0367 16.25 16.2492 16.25H19.5492L20.2242 12.8C20.2576 12.6 20.3576 12.4458 20.5242 12.3375C20.6909 12.2292 20.8742 12.1917 21.0742 12.225C21.2742 12.2583 21.4326 12.3583 21.5492 12.525C21.6659 12.6917 21.7076 12.875 21.6742 13.075L20.9992 16.7232V21.25C20.9992 21.4625 20.9269 21.6406 20.7822 21.7842C20.6377 21.9281 20.4586 22 20.2447 22C20.0311 22 19.8534 21.9281 19.7117 21.7842C19.5701 21.6406 19.4992 21.4625 19.4992 21.25V17.75H16.9992V21.25C16.9992 21.4625 16.9269 21.6406 16.7822 21.7842C16.6377 21.9281 16.4586 22 16.2447 22C16.0311 22 15.8534 21.9281 15.7117 21.7842C15.5701 21.6406 15.4992 21.4625 15.4992 21.25ZM6.74925 7.49999H17.2492L11.9992 3.82499L6.74925 7.49999Z" fill="#423E3E"/>
</svg>
