<svg width="24" height="24" viewBox="0 0 24 24" fill="none" xmlns="http://www.w3.org/2000/svg">
<path d="M19.5246 9.075L16.2496 5.8L13.6246 8.45L11.0996 5.925L14.2746 2.75C14.4579 2.56667 14.6496 2.4375 14.8496 2.3625C15.0496 2.2875 15.2663 2.25 15.4996 2.25C15.7329 2.25 15.9538 2.2875 16.1621 2.3625C16.3704 2.4375 16.5663 2.56667 16.7496 2.75L19.3496 5.35C19.5996 5.6 19.7913 5.88333 19.9246 6.2C20.0579 6.51667 20.1329 6.84167 20.1496 7.175C20.1663 7.50833 20.1246 7.8375 20.0246 8.1625C19.9246 8.4875 19.7579 8.79167 19.5246 9.075ZM5.94961 13.6C5.61628 13.2667 5.44961 12.8375 5.44961 12.3125C5.44961 11.7875 5.61628 11.3583 5.94961 11.025L8.22461 8.725L10.7996 11.3L8.49961 13.6C8.13294 13.9667 7.69961 14.1417 7.19961 14.125C6.69961 14.1083 6.28294 13.9333 5.94961 13.6ZM4.34961 21.275C4.18294 21.1083 4.05794 20.9167 3.97461 20.7C3.89128 20.4833 3.84961 20.2583 3.84961 20.025C3.84961 19.7917 3.89128 19.5667 3.97461 19.35C4.05794 19.1333 4.18294 18.9417 4.34961 18.775L11.8496 11.3L8.24961 7.675C7.99961 7.425 7.87461 7.13333 7.87461 6.8C7.87461 6.46667 7.99961 6.175 8.24961 5.925C8.49961 5.675 8.79544 5.55 9.13711 5.55C9.47878 5.55 9.77461 5.675 10.0246 5.925L13.6246 9.525L15.0496 8.1L17.6746 10.775C17.8246 10.925 17.8996 11.1 17.8996 11.3C17.8996 11.5 17.8246 11.675 17.6746 11.825C17.4579 12.0417 17.2454 12.1125 17.0371 12.0375C16.8288 11.9625 16.6329 11.8333 16.4496 11.65L6.82461 21.275C6.65794 21.4417 6.47044 21.5667 6.26211 21.65C6.05378 21.7333 5.83294 21.775 5.59961 21.775C5.36628 21.775 5.14128 21.7333 4.92461 21.65C4.70794 21.5667 4.51628 21.4417 4.34961 21.275Z" fill="#423E3E"/>
</svg>
