<svg width="20" height="20" viewBox="0 0 20 20" fill="none" xmlns="http://www.w3.org/2000/svg">
<path fill-rule="evenodd" clip-rule="evenodd" d="M9.16667 3.61111C8.65529 3.61111 8.24074 4.02566 8.24074 4.53704H7.12963C7.12963 3.41201 8.04164 2.5 9.16667 2.5C9.75038 2.5 10.2768 2.74552 10.6481 3.13891C11.0195 2.74552 11.5459 2.5 12.1296 2.5C13.2547 2.5 14.1667 3.41201 14.1667 4.53704V5.83333H17.3148V6.94444H14.1667V9.09496C14.4117 9.01885 14.666 8.98148 14.9179 8.98148C15.5032 8.98148 16.1018 9.1833 16.5662 9.60398C16.7648 9.78389 17.029 9.88854 17.3089 9.9048V11.14C16.7485 11.123 16.1818 10.9208 15.7377 10.5186C15.521 10.3223 15.2261 10.2156 14.9179 10.2156C14.6411 10.2156 14.3751 10.3016 14.1667 10.4614V10.463H14.1647C14.1418 10.4806 14.1195 10.4992 14.0981 10.5186C13.6336 10.9393 13.035 11.1411 12.4498 11.1411C11.8645 11.1411 11.2659 10.9393 10.8014 10.5186C10.5847 10.3223 10.2898 10.2156 9.98159 10.2156C9.67341 10.2156 9.37853 10.3223 9.16175 10.5186C8.69732 10.9393 8.09873 11.1411 7.51344 11.1411C6.92814 11.1411 6.32955 10.9393 5.86512 10.5186C5.64834 10.3223 5.35346 10.2156 5.04528 10.2156C4.7371 10.2156 4.44222 10.3223 4.22544 10.5186C3.76101 10.9393 3.16241 11.1411 2.57712 11.1411H2.5462C2.53566 11.1411 2.53033 11.1412 2.52592 11.1413C2.51959 11.1415 2.51517 11.1416 2.5 11.1411V9.90438C2.52783 9.90614 2.55581 9.90702 2.58391 9.90702C2.88963 9.90547 3.18177 9.79889 3.39696 9.60398C3.86139 9.1833 4.45998 8.98148 5.04528 8.98148C5.63057 8.98148 6.22916 9.1833 6.6936 9.60398C6.91038 9.80034 7.20526 9.90704 7.51344 9.90704C7.82162 9.90704 8.1165 9.80034 8.33328 9.60398C8.79771 9.1833 9.3963 8.98148 9.98159 8.98148C10.0186 8.98148 10.0556 8.98229 10.0926 8.9839V6.94444H2.5V5.83333H10.0926V4.53704C10.0926 4.02566 9.67804 3.61111 9.16667 3.61111ZM13.0556 6.94444V9.75581C12.875 9.85468 12.6656 9.90704 12.4498 9.90704C12.1416 9.90704 11.8467 9.80034 11.6299 9.60398C11.4976 9.48413 11.3544 9.38204 11.2037 9.29732V6.94444H13.0556ZM11.2037 4.53704V5.83333H13.0556V4.53704C13.0556 4.02566 12.641 3.61111 12.1296 3.61111C11.6183 3.61111 11.2037 4.02566 11.2037 4.53704Z" fill="#423E3E"/>
<path d="M2.5 14.1041V12.8673C2.52783 12.8691 2.55581 12.87 2.58391 12.87C2.88963 12.8684 3.18177 12.7619 3.39696 12.5669C3.86139 12.1463 4.45998 11.9444 5.04528 11.9444C5.63057 11.9444 6.22916 12.1463 6.6936 12.5669C6.91038 12.7633 7.20526 12.87 7.51344 12.87C7.82162 12.87 8.1165 12.7633 8.33328 12.5669C8.79771 12.1463 9.3963 11.9444 9.98159 11.9444C10.5669 11.9444 11.1655 12.1463 11.6299 12.5669C11.8467 12.7633 12.1416 12.87 12.4498 12.87C12.7579 12.87 13.0528 12.7633 13.2696 12.5669C13.734 12.1463 14.3326 11.9444 14.9179 11.9444C15.5032 11.9444 16.1018 12.1463 16.5662 12.5669C16.7648 12.7469 17.029 12.8515 17.3089 12.8678V14.1029C16.7485 14.0859 16.1818 13.8838 15.7377 13.4816C15.521 13.2852 15.2261 13.1785 14.9179 13.1785C14.6097 13.1785 14.3148 13.2852 14.0981 13.4816C13.6336 13.9023 13.035 14.1041 12.4498 14.1041C11.8645 14.1041 11.2659 13.9023 10.8014 13.4816C10.5847 13.2852 10.2898 13.1785 9.98159 13.1785C9.67341 13.1785 9.37853 13.2852 9.16175 13.4816C8.69732 13.9023 8.09873 14.1041 7.51344 14.1041C6.92814 14.1041 6.32955 13.9023 5.86512 13.4816C5.64834 13.2852 5.35346 13.1785 5.04528 13.1785C4.7371 13.1785 4.44222 13.2852 4.22544 13.4816C3.76101 13.9023 3.16241 14.1041 2.57712 14.1041H2.5462C2.53566 14.1041 2.53033 14.1042 2.52592 14.1043C2.51958 14.1045 2.51518 14.1046 2.5 14.1041Z" fill="#423E3E"/>
<path d="M2.5 17.2522V16.0155C2.52783 16.0172 2.55581 16.0181 2.58391 16.0181C2.88963 16.0166 3.18177 15.91 3.39696 15.7151C3.86139 15.2944 4.45998 15.0926 5.04528 15.0926C5.63057 15.0926 6.22916 15.2944 6.6936 15.7151C6.91038 15.9114 7.20526 16.0182 7.51344 16.0182C7.82162 16.0182 8.1165 15.9114 8.33328 15.7151C8.79771 15.2944 9.3963 15.0926 9.98159 15.0926C10.5669 15.0926 11.1655 15.2944 11.6299 15.7151C11.8467 15.9114 12.1416 16.0182 12.4498 16.0182C12.7579 16.0182 13.0528 15.9114 13.2696 15.7151C13.734 15.2944 14.3326 15.0926 14.9179 15.0926C15.5032 15.0926 16.1018 15.2944 16.5662 15.7151C16.7648 15.895 17.029 15.9996 17.3089 16.0159V17.2511C16.7485 17.2341 16.1818 17.032 15.7377 16.6297C15.521 16.4334 15.2261 16.3267 14.9179 16.3267C14.6097 16.3267 14.3148 16.4334 14.0981 16.6297C13.6336 17.0504 13.035 17.2522 12.4498 17.2522C11.8645 17.2522 11.2659 17.0504 10.8014 16.6297C10.5847 16.4334 10.2898 16.3267 9.98159 16.3267C9.67341 16.3267 9.37853 16.4334 9.16175 16.6297C8.69732 17.0504 8.09873 17.2522 7.51344 17.2522C6.92814 17.2522 6.32955 17.0504 5.86512 16.6297C5.64834 16.4334 5.35346 16.3267 5.04528 16.3267C4.7371 16.3267 4.44222 16.4334 4.22544 16.6297C3.76101 17.0504 3.16241 17.2522 2.57712 17.2522H2.5462C2.53566 17.2522 2.53033 17.2523 2.52592 17.2525C2.51958 17.2526 2.51518 17.2527 2.5 17.2522Z" fill="#423E3E"/>
</svg>
