<svg width="25" height="25" viewBox="0 0 25 25" fill="none" xmlns="http://www.w3.org/2000/svg">
<mask id="mask0_43_80" style="mask-type:alpha" maskUnits="userSpaceOnUse" x="0" y="0" width="25" height="25">
<rect x="0.397186" y="0.807556" width="24" height="24" fill="#D9D9D9"/>
</mask>
<g mask="url(#mask0_43_80)">
<path d="M14.3472 22.7326C14.1639 22.8159 13.968 22.8242 13.7597 22.7576C13.5514 22.6909 13.4055 22.5659 13.3222 22.3826L11.5972 18.9326C11.5139 18.7492 11.5014 18.5534 11.5597 18.3451C11.618 18.1367 11.7389 17.9909 11.9222 17.9076C12.1055 17.8242 12.3014 17.8159 12.5097 17.8826C12.718 17.9492 12.8639 18.0742 12.9472 18.2576L14.6722 21.7076C14.7555 21.8909 14.768 22.0867 14.7097 22.2951C14.6514 22.5034 14.5305 22.6492 14.3472 22.7326ZM20.3472 22.7076C20.1639 22.7909 19.968 22.7992 19.7597 22.7326C19.5514 22.6659 19.4055 22.5409 19.3222 22.3576L17.5972 18.9076C17.5139 18.7242 17.5014 18.5284 17.5597 18.3201C17.618 18.1117 17.7389 17.9659 17.9222 17.8826C18.1055 17.7992 18.3014 17.7909 18.5097 17.8576C18.718 17.9242 18.8639 18.0492 18.9472 18.2326L20.6722 21.6826C20.7555 21.8659 20.768 22.0617 20.7097 22.2701C20.6514 22.4784 20.5305 22.6242 20.3472 22.7076ZM8.34719 22.7076C8.16385 22.7909 7.96802 22.8034 7.75969 22.7451C7.55135 22.6867 7.40552 22.5659 7.32219 22.3826L5.59719 18.9326C5.51385 18.7492 5.50552 18.5534 5.57219 18.3451C5.63885 18.1367 5.76385 17.9909 5.94719 17.9076C6.13052 17.8242 6.32635 17.8117 6.53469 17.8701C6.74302 17.9284 6.88885 18.0492 6.97219 18.2326L8.69719 21.7076C8.78052 21.8909 8.78885 22.0826 8.72219 22.2826C8.65552 22.4826 8.53052 22.6242 8.34719 22.7076ZM7.64719 16.3076C6.19719 16.3076 4.95969 15.7951 3.93469 14.7701C2.90969 13.7451 2.39719 12.5076 2.39719 11.0576C2.39719 9.74089 2.86802 8.56589 3.80969 7.53256C4.75135 6.49922 5.92219 5.93256 7.32219 5.83256C7.85552 4.89922 8.55969 4.16172 9.43469 3.62006C10.3097 3.07839 11.2972 2.80756 12.3972 2.80756C13.9139 2.80756 15.1847 3.28672 16.2097 4.24506C17.2347 5.20339 17.8639 6.39089 18.0972 7.80756C19.4139 7.87422 20.4597 8.32006 21.2347 9.14506C22.0097 9.97006 22.3972 10.9409 22.3972 12.0576C22.3972 13.2242 21.9847 14.2242 21.1597 15.0576C20.3347 15.8909 19.3305 16.3076 18.1472 16.3076H7.64719ZM7.64719 14.8076H18.1472C18.9139 14.8076 19.5639 14.5367 20.0972 13.9951C20.6305 13.4534 20.8972 12.8076 20.8972 12.0576C20.8972 11.2909 20.6305 10.6409 20.0972 10.1076C19.5639 9.57422 18.9139 9.30756 18.1472 9.30756H16.6472V8.55756C16.6472 7.37422 16.2347 6.37006 15.4097 5.54506C14.5847 4.72006 13.5805 4.30756 12.3972 4.30756C11.5472 4.30756 10.768 4.53672 10.0597 4.99506C9.35135 5.45339 8.83052 6.07422 8.49719 6.85756L8.29719 7.30756H7.59719C6.56385 7.34089 5.68885 7.72006 4.97219 8.44506C4.25552 9.17006 3.89719 10.0409 3.89719 11.0576C3.89719 12.0909 4.26385 12.9742 4.99719 13.7076C5.73052 14.4409 6.61385 14.8076 7.64719 14.8076Z" fill="#1C1B1F"/>
</g>
</svg>
