<svg width="24" height="24" viewBox="0 0 24 24" fill="none" xmlns="http://www.w3.org/2000/svg">
<path d="M10.675 20C10.2625 20 9.90945 19.8531 9.61578 19.5592C9.32195 19.2656 9.17503 18.9125 9.17503 18.5V15.85C9.17503 15.4375 9.32195 15.0843 9.61578 14.7905C9.90945 14.4968 10.2625 14.35 10.675 14.35H13.325C13.7375 14.35 14.0907 14.4968 14.3845 14.7905C14.6782 15.0843 14.825 15.4375 14.825 15.85V18.5C14.825 18.9125 14.6782 19.2656 14.3845 19.5592C14.0907 19.8531 13.7375 20 13.325 20H10.675ZM10.675 18.5H13.325V15.85H10.675V18.5ZM2.50003 12.15C2.32753 12.2833 2.14278 12.3333 1.94578 12.3C1.74861 12.2667 1.58336 12.1667 1.45003 12C1.31669 11.8333 1.26619 11.6484 1.29853 11.4453C1.33103 11.2421 1.43153 11.077 1.60003 10.95L11.1 3.675C11.2347 3.575 11.3786 3.5 11.5318 3.45C11.6848 3.4 11.8409 3.375 12 3.375C12.1592 3.375 12.3153 3.4 12.4683 3.45C12.6214 3.5 12.7654 3.575 12.9 3.675L16.45 6.375V5.25C16.45 4.90283 16.5719 4.60767 16.8155 4.3645C17.0592 4.1215 17.355 4 17.703 4C18.051 4 18.3459 4.1215 18.5875 4.3645C18.8292 4.60767 18.95 4.90283 18.95 5.25V8.3L22.425 10.95C22.5907 11.077 22.6863 11.2421 22.7118 11.4453C22.7373 11.6484 22.6834 11.8333 22.55 12C22.4167 12.1667 22.2514 12.2667 22.0543 12.3C21.8573 12.3333 21.6725 12.2833 21.5 12.15L12 4.875L2.50003 12.15Z" fill="#423E3E"/>
</svg>
