<svg width="24" height="24" viewBox="0 0 24 24" fill="none" xmlns="http://www.w3.org/2000/svg">
<path fill-rule="evenodd" clip-rule="evenodd" d="M11.7497 7C11.8212 6.99998 11.893 7.00678 11.9626 7.02734C11.9871 7.03463 12.0101 7.04686 12.0338 7.05664C12.0977 7.083 12.1599 7.11594 12.2165 7.16113C12.2188 7.16293 12.222 7.16414 12.2243 7.16602L23.2243 16.166L23.2819 16.2168C23.5501 16.486 23.5754 16.9202 23.3297 17.2207C23.0839 17.5212 22.6536 17.5816 22.3366 17.3721L22.2751 17.3262L22.1774 17.2461H1.32193L1.22427 17.3262C0.903742 17.5884 0.431906 17.5411 0.169583 17.2207C-0.0927124 16.9001 -0.0455317 16.4283 0.275052 16.166L11.2751 7.16602C11.2772 7.16432 11.2798 7.16283 11.2819 7.16113C11.3384 7.11593 11.4007 7.08305 11.4645 7.05664C11.4883 7.04682 11.5113 7.03462 11.5358 7.02734C11.6056 7.00664 11.6779 6.99996 11.7497 7ZM12.5504 16.2461H20.9547L16.3317 12.4639L12.5504 16.2461ZM2.54458 16.2461H10.9479L7.16568 12.4639L2.54458 16.2461ZM8.04751 11.7432L11.1823 14.8779V9.17773L8.04751 11.7432ZM12.3161 14.877L15.4499 11.7422L12.3161 9.17676V14.877Z" fill="black"/>
</svg>
