<svg width="24" height="24" viewBox="0 0 24 24" fill="none" xmlns="http://www.w3.org/2000/svg">
<path d="M12 21.9002C11.9113 21.9002 11.829 21.8919 11.753 21.8752C11.677 21.8585 11.601 21.8335 11.525 21.8002C9.20833 21.0169 7.375 19.6127 6.025 17.5877C4.675 15.5627 4 13.3409 4 10.9224V6.0252C4 5.7042 4.09067 5.41536 4.272 5.1587C4.45317 4.90186 4.6875 4.7157 4.975 4.6002L11.475 2.1752C11.6583 2.10853 11.8333 2.0752 12 2.0752C12.1667 2.0752 12.3417 2.10853 12.525 2.1752L19.025 4.6002C19.3125 4.7157 19.5469 4.90186 19.7283 5.1587C19.9094 5.41536 20 5.7042 20 6.0252V10.9224C20 13.3409 19.325 15.5627 17.975 17.5877C16.625 19.6127 14.7917 21.0169 12.475 21.8002C12.399 21.8335 12.323 21.8585 12.247 21.8752C12.171 21.8919 12.0887 21.9002 12 21.9002ZM12 20.4252C13.9167 19.7919 15.4792 18.596 16.6875 16.8377C17.8958 15.0794 18.5 13.1085 18.5 10.9252V6.0252L12 3.5752L5.5 6.0252V10.9252C5.5 13.1085 6.10417 15.0794 7.3125 16.8377C8.52083 18.596 10.0833 19.7919 12 20.4252Z" fill="#423E3E"/>
</svg>
