<svg width="24" height="24" viewBox="0 0 24 24" fill="none" xmlns="http://www.w3.org/2000/svg">
<mask id="mask0_1_307" style="mask-type:alpha" maskUnits="userSpaceOnUse" x="0" y="0" width="24" height="24">
<rect width="24" height="24" fill="#D9D9D9"/>
</mask>
<g mask="url(#mask0_1_307)">
<path d="M11.25 4.5H8C7.7875 4.5 7.60942 4.42767 7.46575 4.283C7.32192 4.1385 7.25 3.95933 7.25 3.7455C7.25 3.53183 7.32192 3.35417 7.46575 3.2125C7.60942 3.07083 7.7875 3 8 3H16C16.2125 3 16.3907 3.07233 16.5345 3.217C16.6782 3.3615 16.75 3.54067 16.75 3.7545C16.75 3.96817 16.6782 4.14583 16.5345 4.2875C16.3907 4.42917 16.2125 4.5 16 4.5H12.75V7.75C12.75 7.9625 12.6777 8.14058 12.533 8.28425C12.3885 8.42808 12.2093 8.5 11.9955 8.5C11.7818 8.5 11.6042 8.42808 11.4625 8.28425C11.3208 8.14058 11.25 7.9625 11.25 7.75V4.5ZM4 20.025V14.225C4 14.0125 4.07233 13.8343 4.217 13.6905C4.3615 13.5468 4.54067 13.475 4.7545 13.475C4.96817 13.475 5.14583 13.5475 5.2875 13.6925C5.42917 13.8373 5.5 14.0168 5.5 14.231V14.25H9.25V10.75H9.225C9.0125 10.75 8.83442 10.6777 8.69075 10.533C8.54692 10.3885 8.475 10.2093 8.475 9.9955C8.475 9.78183 8.54692 9.60417 8.69075 9.4625C8.83442 9.32083 9.0125 9.25 9.225 9.25H14.775C14.9875 9.25 15.1657 9.32233 15.3095 9.467C15.4532 9.6115 15.525 9.79067 15.525 10.0045C15.525 10.2182 15.4525 10.3958 15.3075 10.5375C15.1627 10.6792 14.9832 10.75 14.769 10.75H14.75V14.25H18.5V14.225C18.5 14.0125 18.5723 13.8343 18.717 13.6905C18.8615 13.5468 19.0407 13.475 19.2545 13.475C19.4682 13.475 19.6458 13.5468 19.7875 13.6905C19.9292 13.8343 20 14.0125 20 14.225V20.025C20 20.2375 19.9277 20.4156 19.783 20.5592C19.6385 20.7031 19.4593 20.775 19.2455 20.775C19.0318 20.775 18.8542 20.7025 18.7125 20.5575C18.5708 20.4127 18.5 20.2332 18.5 20.019V20H5.5V20.0195C5.5 20.2398 5.42767 20.4208 5.283 20.5625C5.1385 20.7042 4.95933 20.775 4.7455 20.775C4.53183 20.775 4.35417 20.7031 4.2125 20.5592C4.07083 20.4156 4 20.2375 4 20.025ZM5.5 18.5H18.5V15.75H13.25V10.75H10.75V15.75H5.5V18.5Z" fill="#423E3E"/>
</g>
</svg>
