<svg width="25" height="25" viewBox="0 0 25 25" fill="none" xmlns="http://www.w3.org/2000/svg">
<mask id="mask0_34_12" style="mask-type:alpha" maskUnits="userSpaceOnUse" x="0" y="0" width="25" height="25">
<rect x="0.641327" y="0.1698" width="24" height="24" fill="#D9D9D9"/>
</mask>
<g mask="url(#mask0_34_12)">
<path d="M4.14133 20.1698C3.72883 20.1698 3.37574 20.0229 3.08208 19.729C2.78824 19.4354 2.64133 19.0823 2.64133 18.6698V8.9198C2.64133 8.6823 2.69449 8.4573 2.80083 8.2448C2.90699 8.0323 3.05383 7.8573 3.24133 7.7198L9.74133 2.8448C9.87966 2.7448 10.0242 2.6698 10.1748 2.6198C10.3257 2.5698 10.4828 2.5448 10.6463 2.5448C10.8097 2.5448 10.9656 2.5698 11.1141 2.6198C11.2627 2.6698 11.4052 2.7448 11.5413 2.8448L16.2663 6.3948C16.4703 6.5483 16.5755 6.72413 16.5818 6.9223C16.5882 7.12063 16.533 7.2948 16.4163 7.4448C16.2997 7.5948 16.1413 7.6948 15.9413 7.7448C15.7413 7.7948 15.5413 7.7448 15.3413 7.5948L10.6413 4.0448L4.14133 8.9198V18.6698H10.5663C10.7788 18.6698 10.957 18.7421 11.1008 18.8868C11.2445 19.0313 11.3163 19.2105 11.3163 19.4243C11.3163 19.638 11.2445 19.8156 11.1008 19.9573C10.957 20.099 10.7788 20.1698 10.5663 20.1698H4.14133ZM17.8941 9.9198C16.4422 9.9198 15.2038 10.4273 14.1788 11.4423C13.1538 12.4573 12.6413 13.6998 12.6413 15.1698C12.6413 15.8133 12.758 16.4366 12.9913 17.0398C13.2247 17.6431 13.558 18.1781 13.9913 18.6448C14.0913 18.7448 14.1413 18.8656 14.1413 19.0073C14.1413 19.149 14.0955 19.2698 14.0038 19.3698C13.9122 19.4698 13.7997 19.524 13.6663 19.5323C13.533 19.5406 13.4163 19.4948 13.3163 19.3948C12.783 18.8281 12.3705 18.1803 12.0788 17.4513C11.7872 16.7223 11.6413 15.9618 11.6413 15.1698C11.6413 13.423 12.2507 11.9446 13.4693 10.7348C14.6878 9.5248 16.163 8.9198 17.8948 8.9198C19.6425 8.9198 21.1205 9.5248 22.3288 10.7348C23.5372 11.9446 24.1413 13.423 24.1413 15.1698C24.1413 15.956 23.9955 16.7108 23.7038 17.4343C23.4122 18.158 22.9997 18.8031 22.4663 19.3698C22.3663 19.4698 22.2497 19.5156 22.1163 19.5073C21.983 19.499 21.8747 19.4448 21.7913 19.3448C21.708 19.2448 21.6663 19.124 21.6663 18.9823C21.6663 18.8406 21.7163 18.7198 21.8163 18.6198C22.2497 18.1531 22.5788 17.6198 22.8038 17.0198C23.0288 16.4198 23.1413 15.8031 23.1413 15.1698C23.1413 13.6998 22.6341 12.4573 21.6196 11.4423C20.6051 10.4273 19.3632 9.9198 17.8941 9.9198ZM17.8913 12.4198C17.1413 12.4198 16.4955 12.6856 15.9538 13.2173C15.4122 13.749 15.1413 14.3998 15.1413 15.1698C15.1413 15.4933 15.1997 15.8034 15.3163 16.1C15.433 16.3965 15.5913 16.6615 15.7913 16.8948C15.8747 17.001 15.9163 17.1191 15.9163 17.2493C15.9163 17.3796 15.8705 17.4948 15.7788 17.5948C15.6872 17.6948 15.5747 17.7448 15.4413 17.7448C15.308 17.7448 15.1997 17.6948 15.1163 17.5948C14.8163 17.2615 14.5788 16.8906 14.4038 16.4823C14.2288 16.074 14.1413 15.6365 14.1413 15.1698C14.1413 14.123 14.5088 13.2362 15.2438 12.5096C15.9788 11.7831 16.8624 11.4198 17.8946 11.4198C18.9424 11.4198 19.8288 11.7831 20.5538 12.5096C21.2788 13.2362 21.6413 14.123 21.6413 15.1698C21.6413 15.6198 21.5663 16.0573 21.4163 16.4823C21.2663 16.9073 21.0413 17.2865 20.7413 17.6198C20.658 17.7198 20.5413 17.7698 20.3913 17.7698C20.2413 17.7698 20.1247 17.7115 20.0413 17.5948C19.958 17.4781 19.9205 17.3531 19.9288 17.2198C19.9372 17.0865 19.983 16.9615 20.0663 16.8448C20.2497 16.6115 20.3913 16.349 20.4913 16.0573C20.5913 15.7656 20.6413 15.4698 20.6413 15.1698C20.6413 14.3998 20.3755 13.749 19.8438 13.2173C19.3122 12.6856 18.6613 12.4198 17.8913 12.4198ZM17.8913 21.1698C17.758 21.1698 17.6413 21.1198 17.5413 21.0198C17.4413 20.9198 17.3913 20.8031 17.3913 20.6698V16.0448C17.2413 15.9448 17.1205 15.8198 17.0288 15.6698C16.9372 15.5198 16.8913 15.3531 16.8913 15.1698C16.8913 14.8898 16.9872 14.6531 17.1788 14.4598C17.3705 14.2665 17.6046 14.1698 17.8811 14.1698C18.1712 14.1698 18.4122 14.2665 18.6038 14.4598C18.7955 14.6531 18.8913 14.8898 18.8913 15.1698C18.8913 15.3531 18.8497 15.5198 18.7663 15.6698C18.683 15.8198 18.558 15.9448 18.3913 16.0448V20.6698C18.3913 20.8031 18.3413 20.9198 18.2413 21.0198C18.1413 21.1198 18.0247 21.1698 17.8913 21.1698Z" fill="#1C1B1F"/>
</g>
</svg>
