<svg width="24" height="24" viewBox="0 0 24 24" fill="none" xmlns="http://www.w3.org/2000/svg">
<mask id="mask0_1_310" style="mask-type:alpha" maskUnits="userSpaceOnUse" x="0" y="0" width="24" height="24">
<rect width="24" height="24" fill="#D9D9D9"/>
</mask>
<g mask="url(#mask0_1_310)">
<path d="M3.75004 3.5C3.53754 3.5 3.35946 3.42767 3.21579 3.283C3.07196 3.1385 3.00004 2.95933 3.00004 2.7455C3.00004 2.53183 3.07196 2.35417 3.21579 2.2125C3.35946 2.07083 3.53754 2 3.75004 2H5.25004C5.46254 2 5.64071 2.07233 5.78454 2.217C5.92821 2.3615 6.00004 2.54067 6.00004 2.7545C6.00004 2.96817 5.92821 3.14583 5.78454 3.2875C5.64071 3.42917 5.46254 3.5 5.25004 3.5H3.75004ZM4.40004 17.75L3.85004 20.5H11.25V17.75H4.40004ZM5.32504 7.4L6.37504 6.35C6.52504 6.2 6.70138 6.125 6.90404 6.125C7.10671 6.125 7.28171 6.19675 7.42904 6.34025C7.57638 6.49675 7.65004 6.67892 7.65004 6.88675C7.65004 7.09442 7.57504 7.27383 7.42504 7.425L6.37504 8.475C6.22504 8.625 6.04871 8.7 5.84604 8.7C5.64338 8.7 5.46838 8.62825 5.32104 8.48475C5.17371 8.32825 5.10004 8.14608 5.10004 7.93825C5.10004 7.73058 5.17504 7.55117 5.32504 7.4ZM4.70004 16.25H11.25V13.5H5.25004L4.70004 16.25ZM12 6.5C10.95 6.5 10.0292 6.16667 9.23754 5.5C8.44588 4.83333 7.91671 4 7.65004 3C7.58338 2.8 7.60004 2.6125 7.70004 2.4375C7.80004 2.2625 7.94838 2.14167 8.14504 2.075C8.34188 2.00833 8.52938 2.025 8.70754 2.125C8.88588 2.225 9.00838 2.375 9.07504 2.575C9.24171 3.2755 9.59171 3.85483 10.125 4.313C10.6584 4.771 11.2834 5 12 5C12.7167 5 13.3417 4.771 13.875 4.313C14.4084 3.85483 14.7584 3.2755 14.925 2.575C14.9917 2.375 15.1142 2.225 15.2925 2.125C15.4707 2.025 15.6582 2.00833 15.855 2.075C16.0517 2.14167 16.2 2.2625 16.3 2.4375C16.4 2.6125 16.4167 2.8 16.35 3C16.0834 4 15.5542 4.83333 14.7625 5.5C13.9709 6.16667 13.05 6.5 12 6.5ZM11.25 10.25V8.75C11.25 8.5375 11.3224 8.35933 11.467 8.2155C11.6115 8.07183 11.7907 8 12.0045 8C12.2182 8 12.3959 8.07183 12.5375 8.2155C12.6792 8.35933 12.75 8.5375 12.75 8.75V10.25C12.75 10.4625 12.6777 10.6406 12.533 10.7843C12.3885 10.9281 12.2094 11 11.9955 11C11.7819 11 11.6042 10.9281 11.4625 10.7843C11.3209 10.6406 11.25 10.4625 11.25 10.25ZM12.75 20.5H20.15L19.6 17.75H12.75V20.5ZM12.75 16.25H19.3L18.75 13.5H12.75V16.25ZM17.625 8.425L16.55 7.375C16.4 7.225 16.325 7.05 16.325 6.85C16.325 6.65 16.4 6.475 16.55 6.325C16.7 6.175 16.875 6.10417 17.075 6.1125C17.275 6.12083 17.45 6.19167 17.6 6.325L18.675 7.375C18.825 7.525 18.9042 7.7 18.9125 7.9C18.9209 8.1 18.8496 8.275 18.6988 8.425C18.5478 8.575 18.3686 8.65 18.1613 8.65C17.9538 8.65 17.775 8.575 17.625 8.425ZM20.25 3.5H18.75C18.5375 3.5 18.3595 3.42767 18.2158 3.283C18.072 3.1385 18 2.95933 18 2.7455C18 2.53183 18.072 2.35417 18.2158 2.2125C18.3595 2.07083 18.5375 2 18.75 2H20.25C20.4625 2 20.6407 2.07233 20.7845 2.217C20.9282 2.3615 21 2.54067 21 2.7545C21 2.96817 20.9282 3.14583 20.7845 3.2875C20.6407 3.42917 20.4625 3.5 20.25 3.5ZM2.35004 20.2L3.75004 13.2C3.83338 12.85 4.00838 12.5625 4.27504 12.3375C4.54171 12.1125 4.85838 12 5.22504 12H18.775C19.1417 12 19.4584 12.1125 19.725 12.3375C19.9917 12.5625 20.1667 12.85 20.25 13.2L21.65 20.2C21.7334 20.6667 21.6292 21.0833 21.3375 21.45C21.0459 21.8167 20.6584 22 20.175 22H3.82504C3.34171 22 2.95421 21.8167 2.66254 21.45C2.37088 21.0833 2.26671 20.6667 2.35004 20.2Z" fill="#423E3E"/>
</g>
</svg>
