<svg width="24" height="24" viewBox="0 0 24 24" fill="none" xmlns="http://www.w3.org/2000/svg">
<path d="M7.30015 12.2529C7.57487 12.2805 7.77489 12.5251 7.74742 12.7998L7.24742 17.7998C7.21988 18.0745 6.97527 18.2745 6.70054 18.2471C6.42602 18.2194 6.22584 17.9748 6.25328 17.7002L6.75328 12.7002C6.78079 12.4256 7.02556 12.2257 7.30015 12.2529Z" fill="#423E3E"/>
<path d="M15.2005 6.25293C15.4408 6.2289 15.6587 6.37875 15.7279 6.60059L15.7474 6.7002L16.7474 16.7002C16.7749 16.9749 16.5749 17.2195 16.3002 17.2471C16.06 17.2709 15.8419 17.1212 15.7728 16.8994L15.7533 16.7998L14.7533 6.7998V6.69824C14.7771 6.46716 14.9604 6.27716 15.2005 6.25293Z" fill="#423E3E"/>
<path fill-rule="evenodd" clip-rule="evenodd" d="M19.7503 3C20.1302 3 20.4504 3.28401 20.4955 3.66113L22.4955 20.4111C22.5209 20.624 22.4532 20.8377 22.3109 20.998C22.1686 21.1581 21.9646 21.25 21.7503 21.25H1.75035C1.53619 21.2499 1.33205 21.1581 1.1898 20.998C1.04761 20.8378 0.979867 20.6239 1.00523 20.4111L3.00523 3.66113C3.05025 3.28411 3.37069 3.00018 3.75035 3H19.7503ZM2.59605 19.75H20.9046L19.0843 4.5H11.263L11.35 9.74121C11.3546 10.0173 11.1348 10.2454 10.8587 10.25C10.6175 10.2539 10.4132 10.086 10.3627 9.85938L10.35 9.75879L10.263 4.5H4.41636L2.59605 19.75Z" fill="#423E3E"/>
</svg>
