<svg width="24" height="24" viewBox="0 0 24 24" fill="none" xmlns="http://www.w3.org/2000/svg">
<path d="M11.222 20.767C11.0886 20.6337 11.0095 20.467 10.9845 20.267C10.9595 20.067 11.0386 19.8753 11.222 19.692L19.672 11.242C19.8553 11.0587 20.047 10.9795 20.247 11.0045C20.447 11.0295 20.6136 11.1087 20.747 11.242C20.897 11.392 20.972 11.5712 20.972 11.7795C20.972 11.9878 20.897 12.167 20.747 12.317L12.297 20.767C12.1303 20.9337 11.9511 21.017 11.7595 21.017C11.5678 21.017 11.3886 20.9337 11.222 20.767ZM18.822 21.017C18.6553 21.017 18.5428 20.9378 18.4845 20.7795C18.4261 20.6212 18.4553 20.4837 18.572 20.367L20.322 18.617C20.4386 18.5003 20.5761 18.4712 20.7345 18.5295C20.8928 18.5878 20.972 18.7003 20.972 18.867V20.267C20.972 20.4837 20.9011 20.6628 20.7595 20.8045C20.6178 20.9462 20.4386 21.017 20.222 21.017H18.822ZM3.19696 20.742C3.06362 20.6087 2.98446 20.442 2.95946 20.242C2.93446 20.042 3.01362 19.8503 3.19696 19.667L19.672 3.267C19.8553 3.08367 20.047 3.0045 20.247 3.0295C20.447 3.0545 20.6136 3.13367 20.747 3.267C20.8803 3.40033 20.9595 3.567 20.9845 3.767C21.0095 3.967 20.9303 4.15867 20.747 4.342L4.27196 20.742C4.08862 20.9253 3.89696 21.0045 3.69696 20.9795C3.49696 20.9545 3.33029 20.8753 3.19696 20.742ZM3.19696 12.767C3.06362 12.6337 2.98446 12.467 2.95946 12.267C2.93446 12.067 3.01362 11.8753 3.19696 11.692L11.647 3.242C11.8303 3.05867 12.022 2.9795 12.222 3.0045C12.422 3.0295 12.5886 3.10867 12.722 3.242C12.8553 3.37533 12.9345 3.542 12.9595 3.742C12.9845 3.942 12.9053 4.13367 12.722 4.317L4.27196 12.767C4.08862 12.9503 3.89696 13.0295 3.69696 13.0045C3.49696 12.9795 3.33029 12.9003 3.19696 12.767ZM2.97196 5.167V3.767C2.97196 3.55033 3.04279 3.37117 3.18446 3.2295C3.32612 3.08783 3.50529 3.017 3.72196 3.017H5.12196C5.28862 3.017 5.40112 3.09617 5.45946 3.2545C5.51779 3.41283 5.48862 3.55033 5.37196 3.667L3.62196 5.417C3.50529 5.53367 3.36779 5.56283 3.20946 5.5045C3.05112 5.44617 2.97196 5.33367 2.97196 5.167Z" fill="#423E3E"/>
</svg>
