<svg width="24" height="24" viewBox="0 0 24 24" fill="none" xmlns="http://www.w3.org/2000/svg">
<path d="M11.25 13.75V17.425C11.25 17.6083 11.3375 17.7292 11.5125 17.7875C11.6875 17.8458 11.825 17.8 11.925 17.65L15.15 12.825C15.2333 12.6917 15.2375 12.5625 15.1625 12.4375C15.0875 12.3125 14.975 12.25 14.825 12.25H12.75V8.575C12.75 8.39167 12.6625 8.27083 12.4875 8.2125C12.3125 8.15417 12.175 8.2 12.075 8.35L8.85 13.175C8.76667 13.3083 8.7625 13.4375 8.8375 13.5625C8.9125 13.6875 9.025 13.75 9.175 13.75H11.25ZM12 22C9.71667 22 7.8125 21.2167 6.2875 19.65C4.7625 18.0833 4 16.1333 4 13.8C4 12.7333 4.24167 11.675 4.725 10.625C5.20833 9.575 5.8125 8.56667 6.5375 7.6C7.2625 6.63333 8.04583 5.72917 8.8875 4.8875C9.72917 4.04583 10.5167 3.3 11.25 2.65C11.3667 2.55 11.4875 2.47917 11.6125 2.4375C11.7375 2.39583 11.8667 2.375 12 2.375C12.1333 2.375 12.2625 2.39583 12.3875 2.4375C12.5125 2.47917 12.6333 2.55 12.75 2.65C13.4833 3.3 14.2708 4.04583 15.1125 4.8875C15.9542 5.72917 16.7375 6.63333 17.4625 7.6C18.1875 8.56667 18.7917 9.575 19.275 10.625C19.7583 11.675 20 12.7333 20 13.8C20 16.1333 19.2375 18.0833 17.7125 19.65C16.1875 21.2167 14.2833 22 12 22ZM12 20.5C13.8667 20.5 15.4167 19.8625 16.65 18.5875C17.8833 17.3125 18.5 15.7167 18.5 13.8C18.5 12.4833 17.9458 10.9875 16.8375 9.3125C15.7292 7.6375 14.1167 5.86667 12 4C9.88333 5.86667 8.27083 7.6375 7.1625 9.3125C6.05417 10.9875 5.5 12.4833 5.5 13.8C5.5 15.7167 6.11667 17.3125 7.35 18.5875C8.58333 19.8625 10.1333 20.5 12 20.5Z" fill="#1C1B1F"/>
</svg>
