<svg width="20" height="19" viewBox="0 0 20 19" fill="none" xmlns="http://www.w3.org/2000/svg">
<path d="M16.5 0.75C16.9141 0.750055 17.25 1.08582 17.25 1.5V12.3232L19.6709 17.165L19.7012 17.2354C19.8357 17.5907 19.6821 17.9973 19.3349 18.1709C18.9645 18.3558 18.5143 18.2053 18.3291 17.835L16.0361 13.25H4.46385L2.17088 17.835C1.98571 18.2053 1.53541 18.3558 1.16502 18.1709C0.794665 17.9857 0.64414 17.5354 0.829081 17.165L3.24998 12.3232V1.5C3.24998 1.08579 3.58577 0.75 3.99998 0.75C4.41415 0.750055 4.74998 1.08582 4.74998 1.5V11.75H5.99998V1.5C5.99998 1.22388 6.22387 1.00003 6.49998 1C6.77607 1.00006 6.99998 1.22389 6.99998 1.5V11.75H8.49998V1.5C8.49998 1.22388 8.72387 1.00003 8.99998 1C9.27607 1.00006 9.49998 1.22389 9.49998 1.5V11.75H11V1.5C11 1.22388 11.2239 1.00003 11.5 1C11.7761 1.00006 12 1.22389 12 1.5V11.75H13.5V1.5C13.5 1.22388 13.7239 1.00003 14 1C14.2761 1.00006 14.5 1.22389 14.5 1.5V11.75H15.75V1.5C15.75 1.08579 16.0858 0.75 16.5 0.75Z" fill="black"/>
</svg>
