<svg width="24" height="24" viewBox="0 0 24 24" fill="none" xmlns="http://www.w3.org/2000/svg">
<mask id="mask0_33_218" style="mask-type:alpha" maskUnits="userSpaceOnUse" x="0" y="0" width="24" height="24">
<rect width="24" height="24" fill="#D9D9D9"/>
</mask>
<g mask="url(#mask0_33_218)">
<path d="M11.9995 17C12.2332 17 12.4292 16.921 12.5875 16.763C12.7458 16.605 12.825 16.4092 12.825 16.1755C12.825 15.9418 12.746 15.7458 12.588 15.5875C12.43 15.4292 12.2342 15.35 12.0005 15.35C11.7668 15.35 11.5708 15.429 11.4125 15.587C11.2542 15.745 11.175 15.9408 11.175 16.1745C11.175 16.4082 11.254 16.6042 11.412 16.7625C11.57 16.9208 11.7658 17 11.9995 17ZM12.0795 13.175C12.2932 13.175 12.4708 13.1031 12.6125 12.9593C12.7542 12.8156 12.825 12.6375 12.825 12.425V7.6C12.825 7.3875 12.7527 7.20933 12.608 7.0655C12.4635 6.92183 12.2843 6.85 12.0705 6.85C11.8568 6.85 11.6792 6.92183 11.5375 7.0655C11.3958 7.20933 11.325 7.3875 11.325 7.6V12.425C11.325 12.6375 11.3973 12.8156 11.542 12.9593C11.6865 13.1031 11.8657 13.175 12.0795 13.175ZM12.0068 22C10.6278 22 9.33192 21.7375 8.11925 21.2125C6.90642 20.6875 5.84583 19.9708 4.9375 19.0625C4.02917 18.1542 3.3125 17.093 2.7875 15.879C2.2625 14.665 2 13.3678 2 11.9875C2 10.6072 2.2625 9.31 2.7875 8.096C3.3125 6.882 4.02917 5.825 4.9375 4.925C5.84583 4.025 6.907 3.3125 8.121 2.7875C9.335 2.2625 10.6322 2 12.0125 2C13.3928 2 14.69 2.2625 15.904 2.7875C17.118 3.3125 18.175 4.025 19.075 4.925C19.975 5.825 20.6875 6.88333 21.2125 8.1C21.7375 9.31667 22 10.6144 22 11.9933C22 13.3723 21.7375 14.6681 21.2125 15.8807C20.6875 17.0936 19.975 18.1527 19.075 19.058C18.175 19.9632 17.1167 20.6798 15.9 21.208C14.6833 21.736 13.3856 22 12.0068 22ZM12.0125 20.5C14.3708 20.5 16.375 19.6708 18.025 18.0125C19.675 16.3542 20.5 14.3458 20.5 11.9875C20.5 9.62917 19.6766 7.625 18.0298 5.975C16.3829 4.325 14.373 3.5 12 3.5C9.65 3.5 7.64583 4.32342 5.9875 5.97025C4.32917 7.61708 3.5 9.627 3.5 12C3.5 14.35 4.32917 16.3542 5.9875 18.0125C7.64583 19.6708 9.65417 20.5 12.0125 20.5Z" fill="#1C1B1F"/>
</g>
</svg>
