<svg width="24" height="24" viewBox="0 0 24 24" fill="none" xmlns="http://www.w3.org/2000/svg">
<path d="M2.68506 19.6294V4.62936C2.68506 4.21686 2.83198 3.8637 3.12581 3.56986C3.41948 3.2762 3.77256 3.12936 4.18506 3.12936H19.1851C19.5976 3.12936 19.9507 3.2762 20.2446 3.56986C20.5382 3.8637 20.6851 4.21686 20.6851 4.62936V19.6294C20.6851 20.0419 20.5382 20.3949 20.2446 20.6886C19.9507 20.9824 19.5976 21.1294 19.1851 21.1294H4.18506C3.77256 21.1294 3.41948 20.9824 3.12581 20.6886C2.83198 20.3949 2.68506 20.0419 2.68506 19.6294ZM12.4351 12.8794V19.6294H19.1851V12.8794H12.4351ZM12.4351 11.3794H19.1851V4.62936H12.4351V11.3794ZM10.9351 11.3794V4.62936H4.18506V11.3794H10.9351ZM10.9351 12.8794H4.18506V19.6294H10.9351V12.8794Z" fill="#423E3E"/>
</svg>
