<svg width="24" height="24" viewBox="0 0 24 24" fill="none" xmlns="http://www.w3.org/2000/svg">
<path fill-rule="evenodd" clip-rule="evenodd" d="M18.75 5.24978C19.0261 5.24978 19.25 5.47364 19.25 5.74978V18.7498C19.2499 19.0258 19.0261 19.2498 18.75 19.2498H12.75C12.4739 19.2498 12.2501 19.0258 12.25 18.7498V5.74978C12.25 5.47364 12.4739 5.24978 12.75 5.24978H18.75ZM13.25 18.2498H18.25V6.24978H13.25V18.2498Z" fill="black"/>
<path fill-rule="evenodd" clip-rule="evenodd" d="M8.2998 2.15017C8.52695 1.97981 8.83095 1.95206 9.08496 2.07889C9.339 2.20595 9.5 2.46574 9.5 2.74978V2.99978H20.75C21.1642 2.99978 21.5 3.33557 21.5 3.74978V20.7498C21.4999 21.1639 21.1641 21.4998 20.75 21.4998H9.5V21.7498C9.49992 22.0338 9.33898 22.2937 9.08496 22.4207C8.83101 22.5474 8.52691 22.5197 8.2998 22.3494L7.16699 21.4998H2.75C2.33586 21.4998 2.00012 21.1639 2 20.7498V3.74978C2 3.33557 2.33579 2.99978 2.75 2.99978H7.16699L8.2998 2.15017ZM5.5 6.12381V18.3748L8 20.2498V12.7498H7.25C6.97393 12.7498 6.75012 12.5258 6.75 12.2498C6.75 11.9736 6.97386 11.7498 7.25 11.7498H8V4.24881L5.5 6.12381ZM3.5 19.9998H5.16699L4.2998 19.3494C4.1112 19.2078 4.00007 18.9856 4 18.7498V5.74978C4 5.51389 4.1112 5.29183 4.2998 5.15017L5.16699 4.49978H3.5V19.9998ZM9.5 5.24978H10.75C11.0261 5.24978 11.25 5.47364 11.25 5.74978V18.7498C11.2499 19.0258 11.0261 19.2498 10.75 19.2498H9.5V19.9998H20V4.49978H9.5V5.24978ZM9.5 18.2498H10.25V6.24978H9.5V18.2498Z" fill="black"/>
</svg>
