<svg width="24" height="24" viewBox="0 0 24 24" fill="none" xmlns="http://www.w3.org/2000/svg">
<path fill-rule="evenodd" clip-rule="evenodd" d="M21 2.25C21.4142 2.25 21.75 2.58579 21.75 3V13C21.75 13.4142 21.4142 13.75 21 13.75H19.75V21C19.75 21.4142 19.4142 21.75 19 21.75H5C4.58579 21.75 4.25 21.4142 4.25 21V13.75H3C2.58579 13.75 2.25 13.4142 2.25 13V3C2.25 2.58579 2.58579 2.25 3 2.25H21ZM5.75 20.25H18.25V13.75H17.5V19C17.5 19.2761 17.2761 19.5 17 19.5H13C12.7239 19.5 12.5 19.2761 12.5 19V13.75H11.5V19C11.5 19.2761 11.2761 19.5 11 19.5H7C6.72386 19.5 6.5 19.2761 6.5 19V13.75H5.75V20.25ZM7.5 18.5H10.5V13.75H7.5V18.5ZM13.5 18.5H16.5V13.75H13.5V18.5ZM3.75 11.5V12.25H20.25V11.5H3.75ZM3.75 9.5V10.5H20.25V9.5H3.75ZM3.75 7.5V8.5H20.25V7.5H3.75ZM3.75 5.5V6.5H20.25V5.5H3.75ZM3.75 4.5H20.25V3.75H3.75V4.5Z" fill="black"/>
</svg>
