<svg width="74" height="75" viewBox="0 0 74 75" fill="none" xmlns="http://www.w3.org/2000/svg">
<path d="M8.20172 0C3.67027 0 0 3.72038 0 8.3137V73.9608C0 74.5324 0.461346 75 1.02521 75H13.8455V60.9135C13.8455 59.9834 14.5888 59.2299 15.5064 59.2299H26.1891C27.1067 59.2299 27.85 59.9834 27.85 60.9135V75H41.9005V59.4897C41.9005 59.0429 42.0748 58.6168 42.3875 58.2998L50.3893 50.1888C51.0352 49.5341 52.086 49.5341 52.737 50.1888L60.744 58.2998C61.0567 58.6168 61.231 59.0429 61.231 59.4897V75H65.7983C70.3297 75 74 71.2796 74 66.6863V8.3137C74 3.72038 70.3297 0 65.7983 0H8.20172ZM61.8768 27.695C59.7803 28.1679 57.9554 26.3181 58.4219 24.1929C58.6577 23.1225 59.5086 22.2599 60.5646 22.0209C62.6611 21.5481 64.486 23.3979 64.0195 25.5231C63.7837 26.5935 62.9328 27.456 61.8768 27.695Z" fill="white"/>
</svg>