<?xml version="1.0" encoding="UTF-8"?>
<svg id="Layer_1" xmlns="http://www.w3.org/2000/svg" version="1.1" viewBox="0 0 3705.7 1099">
  <!-- Generator: Adobe Illustrator 29.6.0, SVG Export Plug-In . SVG Version: 2.1.1 Build 207)  -->
  <defs>
    <style>
      .st0 {
        fill: #fff;
        fill-rule: evenodd;
      }
    </style>
  </defs>
  <path class="st0" d="M2119,369.9c90,0,147.7,74.2,147.7,181.1s-59.6,181.1-147,181.1-78.8-19.4-98-48.8h-1.3v140.7c0,5.7-4.6,10.3-10.2,10.3h-79.8v-455.2h86.7v42.8h2c21.8-30.1,53.6-52.2,100-52.2ZM2097.2,443.4c-55.7,0-78.8,48.8-78.8,110.3s28.5,103,82.1,103,74.8-38.1,74.8-103-22.5-110.3-78.2-110.3ZM1236.9,369.9c109.3,0,167.5,84.2,167.5,206.5h-246.3c6.6,52.8,35.8,85.6,86.7,85.6s55.6-16,65.6-42.1h88.7c-12.6,60.8-66.2,112.3-153.6,112.3-112.5,0-176.1-79.5-176.1-181.8h0c0-101.7,68.2-180.5,167.5-180.5ZM1238.2,440.1c-47.7,0-70.8,28.8-78.8,73.5h150.9c-2.7-43.5-31.1-73.5-72.2-73.5ZM1729.9,369.9c109.3,0,167.5,84.2,167.5,206.5h-246.3c6.6,52.8,35.8,85.6,86.7,85.6,35.1,0,55.6-16,65.6-42.1h88.7c-12.5,60.8-66.2,112.3-153.6,112.3-112.6,0-176.2-79.5-176.2-181.8h0c0-101.7,68.2-180.5,167.5-180.5ZM1731.2,440.1c-47.7,0-70.8,28.8-78.8,73.5h150.9c-2.7-43.5-31.1-73.5-72.2-73.5ZM2802.6,370.6c99.3,0,143,46.1,143,126.3v174.5c0,26.1,3.9,41.4,11.9,47.4v3.4h-86.7c-5.3-6.7-8.6-22.7-10.6-38.1h0c0,0-1.3,0-1.3,0-17.2,26.1-41.7,46.1-100,46.1s-118.5-36.8-118.5-104.9,60.9-99.6,136.4-110.3c56.3-8,82.1-12.7,82.1-38.8s-19.2-40.8-56.9-40.8c-42.4,0-62.9,15.4-65.5,48.1h-80.1c2.7-60.2,47-112.9,146.3-112.9ZM2860.9,549.7c-15.9,9.4-40.4,14.7-62.9,20.1-47,10.7-70.2,21.4-70.2,53.5s21.2,43.5,53,43.5c51.7,0,80.1-32.1,80.1-65.5h0v-51.5ZM3436.8,272.3c5.6,0,10.2,4.7,10.2,10.3v96.6h60.3v60.2h-60.3v181.8c0,25.4,13.9,34.1,33.8,34.1s26.4-.7,26.5-.7v66.8c-.1,0-20.6,1.3-56.3,1.3s-92.1-17.4-92.1-82.2v-201.2h-47v-60.2h47v-106.9h77.8ZM2391.9,424h2c24.5-36.1,52.3-54.1,98.7-54.1,70.2,0,117.2,53.5,117.2,128.4v223.9h-90.1v-210.6c0-36.8-21.2-62.8-58.9-62.8-39.7,0-68.9,32.1-68.9,78.9v194.5h-90.1V254.6c0-5.7,4.6-10.3,10.2-10.3h79.8v179.8ZM3178.5,369.9c70.2,0,117.2,53.5,117.2,128.4v223.9h-90.1v-210.6c0-36.8-21.2-62.8-58.9-62.8s-68.9,32.1-68.9,78.9v194.5h-90.1v-332.6c0-5.7,4.6-10.3,10.2-10.3h77.8v46.8h2c23.2-36.8,54.3-56.1,100.7-56.1ZM1528.7,722.2h-90V254.6c0-5.7,4.6-10.3,10.2-10.3h79.8v478ZM275.5,203.5c-42.6,0-77.1,34.3-77.1,76.7v605.7c0,5.3,4.3,9.6,9.6,9.6h120.6v-130c0-8.6,7-15.5,15.6-15.5h100.5c8.6,0,15.6,7,15.6,15.5v130h132.1v-143.1c0-4.1,1.6-8.1,4.6-11l75.3-74.8c6.1-6,16-6,22.1,0l75.3,74.8c2.9,2.9,4.6,6.9,4.6,11v143.1h43c42.6,0,77.1-34.3,77.1-76.7V280.2c0-42.4-34.5-76.7-77.1-76.7H275.5ZM780.3,459c-19.7,4.4-36.9-12.7-32.5-32.3,2.2-9.9,10.2-17.8,20.2-20,19.7-4.4,36.9,12.7,32.5,32.3-2.2,9.9-10.2,17.8-20.2,20Z"/>
</svg>